<?xml version="1.0" standalone="no"?>
<!DOCTYPE svg PUBLIC "-//W3C//DTD SVG 20010904//EN"
 "http://www.w3.org/TR/2001/REC-SVG-20010904/DTD/svg10.dtd">
<svg version="1.0" xmlns="http://www.w3.org/2000/svg"
 width="348.000000pt" height="599.000000pt" viewBox="0 0 348.000000 599.000000"
 preserveAspectRatio="xMidYMid meet">

<g transform="translate(0.000000,599.000000) scale(0.100000,-0.100000)"
fill="#000000" stroke="none">
<path d="M1542 5783 c-2 -29 0 -29 17 5 9 17 9 22 -1 22 -8 0 -15 -12 -16 -27z"/>
<path d="M1430 5770 c-58 -9 -121 -27 -140 -41 -12 -8 -11 -9 5 -5 36 9 180
39 193 39 6 0 12 4 12 9 0 9 -3 9 -70 -2z"/>
<path d="M1880 5750 c0 -8 25 -20 41 -20 20 0 7 18 -16 22 -14 3 -25 2 -25 -2z"/>
<path d="M1785 5730 c-3 -4 -19 -11 -35 -15 -17 -4 -27 -11 -24 -16 4 -7 10
-6 18 0 6 5 35 13 64 17 29 4 51 8 50 9 -11 8 -68 13 -73 5z"/>
<path d="M2070 5736 c0 -2 7 -7 16 -10 8 -3 12 -2 9 4 -6 10 -25 14 -25 6z"/>
<path d="M1995 5720 c3 -5 8 -10 11 -10 2 0 4 5 4 10 0 6 -5 10 -11 10 -5 0
-7 -4 -4 -10z"/>
<path d="M1240 5710 c-9 -6 -10 -10 -3 -10 6 0 15 5 18 10 8 12 4 12 -15 0z"/>
<path d="M1378 5713 c7 -3 16 -2 19 1 4 3 -2 6 -13 5 -11 0 -14 -3 -6 -6z"/>
<path d="M1282 5701 c-8 -4 -13 -12 -12 -17 0 -5 -8 -10 -19 -12 -13 -2 -18
-9 -14 -18 3 -9 -1 -14 -11 -14 -9 0 -29 -8 -44 -17 -26 -17 -26 -17 -13 0 8
10 9 17 3 17 -6 0 -15 -12 -20 -27 -6 -16 -11 -22 -11 -14 -1 11 -5 10 -21 -4
-11 -10 -17 -21 -14 -26 2 -4 -6 -13 -18 -20 -21 -11 -22 -11 -9 5 8 9 10 20
6 24 -4 4 -10 1 -12 -5 -3 -7 -10 -13 -17 -13 -15 0 -66 -52 -66 -67 0 -12
-51 -49 -63 -45 -5 1 -5 -7 -2 -19 5 -16 4 -19 -5 -14 -8 5 -11 3 -8 -6 3 -8
17 -14 31 -14 14 -1 29 -4 33 -8 4 -4 18 -4 30 -1 20 5 24 2 24 -17 0 -33 14
-51 32 -44 10 4 17 -1 21 -14 3 -14 0 -21 -8 -21 -7 0 -19 -14 -27 -30 -21
-47 -33 -29 -33 48 0 66 -9 91 -20 60 -10 -26 -12 -79 -4 -84 5 -3 7 -10 3
-15 -3 -5 -9 -7 -14 -4 -5 3 -11 -4 -15 -15 -3 -11 -13 -20 -21 -20 -8 0 -17
-7 -20 -15 -4 -8 -15 -15 -25 -15 -10 0 -19 -7 -19 -15 0 -8 4 -15 9 -15 4 0
21 -19 37 -42 15 -24 30 -45 31 -47 2 -3 8 0 14 6 8 8 20 8 37 2 13 -5 27 -7
30 -4 3 3 14 -2 24 -12 11 -9 18 -11 18 -5 0 7 14 12 30 12 23 0 33 6 40 24 5
13 15 26 22 28 10 4 9 10 -4 25 -10 11 -18 23 -18 28 0 4 9 -2 20 -15 22 -26
25 -36 10 -45 -6 -4 -7 -11 -4 -17 4 -7 2 -8 -4 -4 -7 4 -12 1 -12 -7 0 -8
-14 -20 -30 -27 -17 -7 -29 -15 -26 -17 3 -3 -11 -20 -30 -39 -19 -19 -34 -39
-34 -45 0 -6 -7 -17 -15 -25 -8 -9 -15 -12 -15 -7 0 4 -11 -5 -24 -20 -14 -17
-27 -24 -31 -18 -11 19 -24 12 -20 -10 4 -20 4 -20 -23 -3 l-27 17 19 -21 c17
-20 17 -22 2 -28 -15 -6 -15 -7 1 -20 15 -11 15 -13 2 -8 -13 4 -18 -2 -21
-26 -3 -17 -1 -33 4 -36 4 -3 8 0 8 6 0 6 5 8 10 5 6 -3 10 -11 10 -16 0 -6
-4 -8 -9 -4 -5 3 -13 1 -16 -5 -9 -15 -14 -80 -6 -75 4 2 8 -5 8 -16 2 -18 0
-19 -14 -7 -15 11 -16 11 -10 -6 4 -10 2 -25 -5 -34 -10 -13 -10 -14 0 -8 7 4
15 1 18 -8 3 -9 10 -14 14 -11 5 3 5 -9 -1 -27 -5 -18 -9 -34 -9 -35 0 -1 8 1
18 4 15 6 16 5 2 -11 -12 -16 -12 -20 1 -30 8 -6 13 -19 11 -28 -4 -18 8 -22
57 -20 14 1 27 5 30 9 21 28 94 82 103 77 6 -4 8 -3 5 3 -4 6 0 16 8 23 8 7
15 9 15 5 0 -4 6 -3 13 2 6 5 38 9 70 7 31 -2 57 0 57 5 0 4 7 16 15 27 9 10
4 -8 -10 -40 -14 -33 -30 -65 -36 -72 -13 -16 -48 -84 -43 -84 2 0 15 18 29
40 14 22 33 40 43 40 11 0 13 3 5 8 -8 5 -6 16 7 41 17 34 18 34 29 13 7 -13
30 -30 52 -38 21 -9 39 -20 39 -25 0 -5 7 -9 15 -9 26 0 16 17 -17 32 -18 8
-44 20 -58 26 -33 14 -2 16 36 2 15 -6 29 -8 32 -6 3 3 -7 10 -22 15 -32 13
-35 25 -3 15 12 -3 18 -3 14 2 -5 5 -27 9 -50 9 -36 0 -42 3 -39 20 5 27 7 28
31 15 15 -7 21 -8 21 0 0 6 11 3 25 -7 16 -11 23 -25 21 -36 -3 -12 0 -17 9
-14 8 4 11 -1 8 -12 -3 -13 3 -20 22 -25 14 -4 23 -11 20 -16 -3 -6 0 -10 7
-10 9 0 9 -3 -2 -10 -13 -8 -12 -10 3 -10 9 0 17 -7 17 -15 0 -11 -11 -15 -37
-15 -21 -1 -51 -7 -68 -14 l-30 -12 34 -12 c19 -7 42 -12 52 -12 27 0 41 -31
21 -47 -11 -8 -12 -12 -4 -13 6 0 12 -5 12 -11 0 -5 -6 -7 -12 -3 -9 5 -9 2 1
-9 12 -15 11 -17 -3 -17 -9 0 -16 6 -16 14 0 21 -17 29 -37 18 -14 -9 -14 -10
5 -16 12 -4 23 -12 23 -17 1 -5 2 -14 3 -20 0 -6 15 -17 31 -25 25 -12 26 -13
5 -8 -14 3 -38 8 -55 10 -26 4 -27 3 -10 -6 15 -8 7 -9 -35 -6 l-55 4 42 -10
c37 -9 62 -32 49 -45 -2 -2 -28 3 -57 11 -29 9 -54 14 -57 12 -2 -3 16 -10 39
-17 40 -11 42 -13 19 -19 -24 -6 -24 -6 7 -13 24 -5 31 -11 27 -22 -5 -13 -18
-14 -73 -9 -45 4 -61 2 -52 -4 8 -6 20 -8 28 -5 7 3 13 0 13 -7 0 -6 4 -9 8
-6 4 2 14 1 21 -4 14 -8 -30 -17 -97 -19 l-33 -1 21 22 c21 23 22 45 1 40 -7
-1 -10 2 -7 6 3 5 18 8 33 6 l28 -4 -26 12 c-14 6 -34 26 -44 44 -10 18 -24
35 -32 38 -14 6 -13 16 2 139 2 15 -1 27 -6 27 -5 0 -9 -3 -9 -7 -1 -5 -2 -30
-4 -58 -2 -27 -6 -57 -10 -65 -4 -10 6 -30 29 -55 24 -27 34 -46 30 -60 -2
-11 -5 -30 -5 -43 0 -18 -5 -23 -22 -20 -15 2 -23 -2 -23 -12 -1 -8 -7 -27
-14 -42 -10 -20 -19 -25 -38 -22 -14 3 -30 0 -37 -5 -16 -13 -32 -1 -39 30 -5
21 -13 27 -32 25 -14 0 -25 -3 -25 -6 0 -3 -8 -6 -19 -6 -11 0 -17 6 -14 12 2
7 -14 31 -36 53 -25 25 -41 50 -41 64 0 13 -13 42 -28 63 -38 53 -94 169 -71
148 10 -9 19 -11 23 -5 4 5 -2 14 -11 20 -14 8 -15 13 -5 19 7 5 14 29 15 53
2 24 7 51 11 58 7 10 5 12 -4 6 -10 -6 -11 -2 -7 17 4 14 4 28 0 32 -7 7 -10
26 -17 130 -3 38 -2 74 1 80 11 16 10 56 -1 56 -5 0 -1 9 10 20 29 29 45 50
39 50 -3 0 -1 9 5 20 9 16 8 22 -5 26 -16 6 -21 30 -7 36 18 7 40 72 31 89 -6
12 -5 20 1 24 7 4 8 11 2 18 -6 7 -7 33 -3 60 6 37 5 47 -6 47 -8 0 -11 5 -8
10 4 6 15 8 25 5 13 -4 23 1 32 14 21 34 29 24 10 -13 -9 -18 -23 -31 -29 -29
-7 3 -13 1 -13 -5 0 -5 7 -13 16 -16 22 -9 24 -8 24 9 0 8 9 15 20 15 22 0 39
25 33 50 -3 10 0 34 5 54 11 37 5 45 -16 24 -9 -9 -12 -9 -12 1 0 8 -11 2 -27
-13 -21 -21 -24 -29 -14 -35 9 -6 10 -11 2 -15 -6 -4 -11 -2 -11 5 0 7 -14 -2
-31 -19 -20 -21 -29 -38 -25 -48 5 -14 4 -15 -9 -4 -8 7 -16 10 -16 6 -3 -15
-7 -25 -37 -86 -18 -36 -32 -58 -32 -50 0 8 7 28 15 44 9 16 14 31 11 33 -4 5
-46 -82 -57 -119 -4 -16 -4 -28 0 -28 4 0 12 12 18 28 l11 27 -2 -30 c-1 -24
5 -33 32 -47 38 -18 56 -35 30 -25 -19 7 -25 -8 -8 -18 14 -9 3 -25 -17 -25
-10 0 -14 6 -10 20 3 11 2 20 -1 21 -4 0 -15 2 -25 4 -10 2 -21 -4 -24 -13 -6
-14 -7 -14 -13 2 -3 10 -15 -22 -29 -81 -12 -54 -25 -105 -28 -113 -4 -8 -5
-19 -4 -23 3 -14 -20 -48 -28 -42 -15 8 -18 -51 -4 -64 9 -8 11 -25 7 -51 -5
-33 -4 -40 10 -40 9 0 16 -5 16 -11 0 -5 -5 -7 -10 -4 -11 7 -13 -6 -4 -29 3
-9 10 -13 15 -10 5 3 9 -4 9 -16 0 -19 -1 -20 -16 -6 -23 24 -25 20 -8 -26 8
-24 12 -53 9 -66 -5 -20 -3 -23 13 -18 15 5 21 1 25 -16 8 -27 -1 -38 -13 -18
-8 12 -10 10 -10 -9 0 -18 4 -22 20 -18 11 3 20 1 20 -4 0 -5 -7 -9 -15 -9 -8
0 -15 -4 -15 -10 0 -5 7 -10 15 -10 8 0 15 -6 16 -12 0 -7 4 -4 8 7 7 18 10
16 19 -15 5 -19 13 -43 17 -52 4 -11 3 -18 -4 -18 -6 0 -11 9 -11 20 0 12 -5
17 -14 14 -8 -3 -15 3 -18 14 -3 10 -14 21 -25 24 -19 5 -20 4 -7 -36 7 -22
20 -61 29 -85 12 -32 13 -46 5 -51 -8 -5 -7 -9 3 -13 9 -3 21 -22 28 -41 7
-20 18 -36 24 -36 14 0 55 -42 55 -56 0 -21 23 -33 42 -23 13 7 18 6 18 -4 0
-8 9 -22 20 -32 11 -10 20 -25 21 -34 0 -12 3 -11 8 4 5 11 4 23 -1 26 -5 3
-10 15 -11 27 0 12 -8 24 -15 27 -12 4 -12 8 -1 21 10 13 10 17 -1 24 -8 5
-12 11 -9 14 3 3 16 -6 30 -20 17 -18 19 -23 6 -18 -9 3 -17 2 -17 -4 0 -5 7
-13 16 -16 9 -4 14 -13 10 -21 -3 -10 10 -32 34 -57 22 -24 35 -45 29 -48 -6
-4 -4 -12 5 -20 9 -7 13 -16 10 -21 -3 -5 2 -9 10 -9 9 0 16 -7 16 -15 0 -8 4
-15 9 -15 5 0 13 -10 17 -22 l7 -23 9 25 c5 14 7 32 5 41 -2 9 2 16 9 16 8 0
14 -6 14 -14 0 -7 9 -13 20 -13 11 0 20 5 20 10 0 6 5 10 10 10 6 0 10 -7 10
-15 0 -14 -6 -17 -27 -14 -4 0 -11 -9 -15 -21 -5 -14 -14 -20 -23 -16 -22 8
-18 -3 8 -25 26 -21 48 -24 65 -7 17 17 15 38 -5 38 -31 0 -2 14 33 16 40 1
41 -2 12 -27 -23 -19 -23 -19 -3 -32 24 -15 57 -16 67 -2 5 7 13 6 25 -1 14
-9 21 -8 30 5 10 14 11 13 6 -7 -4 -19 -2 -21 13 -16 11 4 16 4 12 0 -3 -4 0
-23 8 -42 8 -19 10 -34 5 -34 -5 0 -12 6 -14 13 -4 9 -6 9 -6 0 -1 -7 7 -17
18 -22 20 -11 34 -38 26 -51 -3 -5 -19 -5 -36 0 -25 8 -30 6 -25 -5 7 -20 -8
-19 -25 2 -11 13 -11 17 -1 20 6 3 9 10 5 16 -4 7 5 4 20 -5 14 -10 30 -18 34
-18 4 0 0 5 -10 11 -9 6 -15 14 -12 19 7 11 -27 30 -55 30 -12 0 -18 5 -15 10
4 6 -7 10 -24 10 -17 0 -31 4 -31 9 0 11 -30 19 -47 14 -15 -5 6 -41 54 -93
34 -36 40 -50 23 -50 -6 0 -15 10 -20 23 -15 36 -129 155 -130 134 0 -9 5 -16
11 -15 6 2 14 -3 16 -9 3 -7 -1 -13 -7 -13 -9 0 -9 -4 0 -15 8 -9 16 -12 19
-6 4 5 16 -6 29 -25 12 -19 18 -34 12 -34 -5 0 -10 -5 -10 -11 0 -5 5 -7 11
-3 6 3 22 -6 34 -22 13 -16 27 -29 33 -29 18 0 95 -78 96 -99 1 -11 6 -20 11
-19 14 2 11 -63 -3 -80 -9 -11 -8 -18 7 -31 19 -17 19 -17 14 2 -2 11 1 23 8
28 8 5 11 3 7 -7 -3 -8 4 -23 14 -34 14 -14 19 -16 16 -5 -2 8 -7 18 -13 22
-21 16 5 18 29 3 14 -9 27 -16 30 -16 24 4 36 -1 36 -14 0 -8 5 -16 10 -16 6
-1 16 -2 23 -3 6 -1 11 -9 9 -19 -2 -9 2 -17 8 -17 5 0 10 5 10 10 0 6 11 3
25 -6 15 -10 25 -12 25 -5 0 6 -7 11 -15 11 -8 0 -15 5 -15 11 0 6 8 9 18 7
24 -5 54 30 46 55 -4 13 -2 18 6 15 15 -5 23 -58 9 -58 -6 0 -18 -8 -27 -17
-13 -13 -14 -17 -3 -21 7 -2 21 -13 30 -24 25 -32 54 -58 63 -58 11 0 10 18
-2 25 -6 4 -7 11 -4 17 4 6 0 14 -7 19 -8 5 -17 3 -21 -4 -6 -9 -8 -9 -8 1 0
7 14 18 30 23 17 6 30 18 31 27 0 11 2 13 6 4 3 -7 0 -26 -6 -42 -6 -18 -6
-30 0 -30 5 0 9 -9 9 -19 0 -11 5 -21 10 -23 6 -2 13 -21 16 -43 9 -62 15 -74
24 -50 7 16 9 17 9 3 1 -9 -3 -20 -9 -23 -15 -9 -12 -25 5 -25 10 0 15 -11 16
-32 l1 -33 9 35 c4 19 6 41 4 48 -7 21 6 37 16 21 6 -10 9 -10 9 -2 0 6 -4 15
-10 18 -13 8 -13 52 -1 60 5 3 12 -3 14 -12 3 -10 5 -3 6 16 1 26 -2 32 -15
27 -8 -3 -12 -2 -9 4 3 6 13 10 20 10 15 0 15 45 0 70 -4 7 -2 16 6 21 12 8
12 11 -1 19 -12 8 -12 10 -1 10 10 0 11 4 3 13 -11 12 -5 67 7 67 4 0 7 8 8
18 0 9 3 26 6 37 2 11 8 45 12 75 4 30 9 64 12 75 10 41 8 60 -6 57 -8 -2 -11
3 -8 12 4 9 2 18 -3 21 -14 8 -13 35 1 35 6 0 13 -9 16 -20 3 -13 14 -20 29
-20 13 0 24 1 24 3 0 1 -4 17 -9 35 -5 17 -6 32 -1 32 5 0 11 -13 15 -30 4
-16 12 -30 18 -30 8 0 8 -3 2 -8 -5 -4 -19 -18 -30 -31 l-20 -24 21 5 c18 5
21 2 17 -16 -4 -17 -3 -18 6 -6 9 13 11 11 11 -6 0 -12 -7 -24 -15 -28 -9 -3
-16 -19 -16 -38 -1 -27 -3 -28 -6 -8 -12 73 -28 61 -41 -30 -5 -36 -13 -74
-17 -84 -6 -14 -5 -17 3 -12 7 4 12 2 12 -3 0 -6 -3 -11 -7 -11 -13 0 -15
-178 -3 -200 8 -14 8 -20 0 -20 -6 0 -8 -4 -5 -10 3 -5 2 -10 -3 -10 -5 0 -9
-15 -8 -32 2 -18 -3 -44 -9 -58 -7 -14 -9 -34 -5 -45 5 -15 10 -7 19 35 7 30
15 69 18 85 2 17 9 34 14 39 5 6 9 20 9 33 0 17 4 21 18 17 10 -4 13 -3 6 3
-6 4 -14 40 -17 78 -5 68 -4 70 18 71 18 1 23 -3 21 -20 -1 -12 -6 -27 -10
-34 -5 -8 -2 -10 8 -6 16 6 21 -9 18 -49 -1 -11 2 -15 9 -11 7 4 9 22 6 45 -3
22 -1 37 4 33 5 -3 9 -10 9 -16 0 -5 8 -20 18 -33 15 -19 20 -21 28 -8 7 11
10 6 11 -19 1 -18 4 -49 7 -68 3 -19 3 -29 0 -22 -3 6 -10 10 -15 7 -5 -4 -6
1 -3 9 4 9 -1 18 -10 22 -9 4 -16 18 -16 34 0 45 -17 44 -18 0 -1 -22 3 -40 8
-40 6 0 10 -5 10 -10 0 -6 -6 -9 -12 -8 -7 2 -14 -8 -16 -22 -3 -24 -3 -24 11
-5 14 18 16 18 22 3 4 -9 4 -22 0 -28 -3 -5 0 -10 8 -10 9 0 12 -9 9 -30 -3
-21 -10 -30 -23 -30 -22 0 -23 -9 -9 -42 13 -29 -10 -141 -35 -168 -20 -22
-11 -47 10 -30 9 8 15 8 20 0 3 -5 0 -10 -7 -10 -17 0 -52 -74 -37 -79 5 -1 2
-9 -8 -17 -17 -13 -17 -14 2 -8 18 5 18 4 -2 -12 -18 -13 -21 -20 -12 -36 8
-15 7 -24 -5 -37 -9 -10 -16 -23 -16 -29 0 -7 -5 -12 -11 -12 -5 0 -8 -4 -5
-8 3 -5 -1 -25 -8 -45 -14 -43 -27 -60 -19 -25 4 16 3 20 -5 13 -6 -6 -13 -19
-15 -30 -1 -11 -7 -26 -11 -34 -7 -10 -5 -12 5 -7 8 4 5 -1 -7 -11 -11 -10
-21 -21 -22 -25 -18 -58 -67 -153 -93 -182 -10 -10 -15 -24 -13 -31 6 -16 -19
-67 -56 -115 -15 -19 -40 -60 -56 -90 -16 -30 -32 -57 -35 -60 -4 -3 -10 -15
-13 -28 -4 -12 -18 -30 -32 -38 -13 -9 -24 -22 -24 -30 0 -35 -56 -101 -82
-96 -4 1 -5 -5 -1 -14 3 -9 -4 -24 -16 -36 -28 -26 -102 -140 -129 -198 -22
-49 -51 -91 -52 -74 0 5 7 19 15 30 8 10 14 24 15 29 0 6 -9 -3 -20 -20 -11
-16 -18 -36 -15 -43 3 -7 0 -23 -6 -34 -13 -25 -5 -35 16 -18 9 8 15 8 15 2 0
-6 -15 -22 -32 -36 -26 -20 -30 -28 -20 -38 9 -9 12 -8 12 6 0 14 6 17 25 14
18 -4 22 -2 16 6 -6 7 -4 18 5 31 15 19 16 19 26 2 5 -11 24 -25 42 -33 26
-11 28 -13 9 -14 -13 0 -23 -5 -23 -11 0 -6 16 -8 43 -5 23 3 49 6 57 7 8 1
25 1 38 1 21 -2 22 -3 7 -25 -8 -13 -12 -27 -8 -30 3 -4 -1 -7 -10 -7 -21 0
-22 -16 -1 -24 26 -10 54 -7 55 7 1 6 2 18 3 24 2 24 21 12 19 -13 -1 -13 2
-24 7 -24 13 0 18 22 12 57 -4 27 -1 33 13 33 14 0 15 -3 6 -14 -11 -13 -5
-46 8 -46 4 0 12 5 19 12 9 9 12 7 12 -11 0 -12 -4 -20 -9 -17 -5 3 -8 -2 -7
-11 0 -9 -5 -18 -13 -21 -10 -3 -12 0 -8 12 4 9 3 16 -2 16 -5 0 -11 -9 -14
-19 -5 -22 25 -35 42 -18 6 6 11 9 12 7 0 -3 2 -13 4 -22 2 -10 -2 -16 -8 -15
-7 1 -11 -6 -9 -15 2 -10 -2 -18 -8 -18 -6 0 -9 4 -5 9 3 6 -11 13 -32 17 -21
4 -58 16 -83 27 -25 11 -49 21 -55 21 -5 1 -27 9 -49 19 -47 21 -60 21 -52 2
11 -29 -15 -15 -69 38 -30 29 -55 61 -55 71 0 9 5 14 10 11 5 -3 10 -2 10 4 0
5 -9 9 -20 8 -20 -1 -26 -13 -35 -58 -3 -12 -8 -25 -12 -28 -8 -6 -12 -27 -17
-96 -1 -22 -13 -60 -26 -85 -20 -39 -24 -43 -31 -25 -6 15 -8 11 -8 -18 -1
-21 4 -47 9 -57 8 -15 5 -31 -15 -71 -33 -63 -27 -76 6 -14 15 28 27 41 33 35
6 -6 18 -10 29 -10 17 0 17 -1 3 -16 -9 -8 -13 -21 -9 -27 4 -7 9 -4 13 8 5
13 9 15 14 7 4 -7 4 -17 1 -22 -3 -6 -1 -10 4 -10 6 0 11 5 11 10 0 6 5 10 11
10 5 0 7 -5 3 -12 -5 -8 -2 -9 10 -5 9 4 15 3 11 -2 -3 -5 -2 -11 2 -14 5 -2
2 -2 -6 0 -8 2 -18 -2 -22 -9 -6 -9 -11 -9 -24 2 -12 10 -19 10 -27 2 -9 -9
-8 -12 5 -12 9 0 17 -5 17 -11 0 -5 -4 -8 -9 -4 -12 7 -33 -29 -23 -40 4 -5
-1 -5 -10 -2 -12 4 -15 2 -12 -8 3 -7 15 -13 26 -12 15 1 18 7 15 24 -5 29 18
31 33 3 9 -17 8 -19 -7 -14 -15 5 -16 4 -3 -5 8 -6 18 -11 23 -11 14 0 7 33
-10 46 -10 7 -14 16 -10 20 4 5 12 2 16 -5 5 -8 11 -9 15 -3 3 6 0 13 -6 15
-9 4 -8 6 3 6 12 1 15 -10 15 -54 0 -52 -8 -70 -20 -42 -3 6 -4 3 -3 -8 1 -11
9 -25 17 -32 13 -10 11 -11 -7 -6 -33 8 -51 32 -32 44 10 7 5 8 -14 3 -24 -6
-35 0 -68 32 -21 21 -39 46 -39 56 0 10 -4 18 -9 18 -16 0 -32 97 -21 126 6
15 9 29 7 31 -5 5 -61 -155 -83 -234 -29 -109 -16 -177 51 -259 139 -170 558
-283 945 -255 200 15 461 70 481 103 3 5 9 9 13 9 3 -1 7 -1 9 0 1 0 13 3 27
5 14 2 32 14 41 26 9 11 21 18 26 15 5 -3 10 0 10 8 0 11 -5 11 -30 -2 -87
-45 -259 -97 -292 -89 -12 3 -30 -1 -41 -8 -36 -26 -193 -48 -347 -49 -141 -1
-148 0 -163 21 -8 12 -22 22 -30 22 -8 0 -14 3 -14 8 0 4 71 7 158 8 86 1 177
4 202 7 25 3 88 11 139 17 172 22 392 115 493 208 103 96 125 170 88 294 -24
79 -79 190 -92 182 -4 -3 -14 9 -23 25 -8 16 -19 33 -25 36 -5 3 8 -27 30 -67
23 -42 40 -87 40 -105 0 -39 -19 -83 -35 -83 -7 0 -15 -9 -18 -20 -3 -12 0
-20 8 -20 21 0 26 -28 18 -99 l-7 -66 -11 38 c-14 49 -25 37 -25 -25 0 -31 -4
-47 -10 -43 -6 4 -8 11 -5 16 4 5 0 9 -7 9 -8 0 -9 3 -3 8 15 11 16 29 1 29
-9 0 -12 -11 -9 -34 2 -18 0 -33 -5 -33 -5 0 -10 28 -11 62 -2 73 -4 78 -39
79 -24 0 -25 1 -7 9 11 5 15 9 8 9 -24 2 -63 -22 -63 -38 0 -13 2 -13 9 -3 7
11 9 11 14 -1 4 -11 -3 -19 -23 -26 -16 -5 -31 -7 -34 -3 -10 18 -37 125 -32
130 3 3 23 13 45 23 28 12 42 14 50 6 8 -8 11 -8 11 2 0 7 -9 15 -20 18 -11 3
-20 10 -20 17 0 6 -13 24 -30 39 -17 16 -30 24 -30 19 0 -5 11 -20 25 -33 31
-30 34 -64 5 -56 -11 3 -20 1 -20 -4 0 -5 -4 -9 -10 -9 -5 0 -10 9 -10 20 0
14 5 18 18 13 18 -7 17 -5 -11 17 -10 7 -17 9 -16 4 4 -25 -2 -74 -10 -74 -6
0 -8 20 -4 46 4 31 2 45 -5 40 -6 -3 -14 -1 -18 6 -14 22 -21 -35 -8 -62 17
-34 44 -132 44 -158 0 -11 8 -23 18 -25 14 -4 14 -5 -3 -6 -17 -1 -23 9 -34
57 -16 69 -21 78 -32 61 -7 -11 -9 -10 -9 3 0 9 5 18 10 20 6 2 -12 28 -40 58
-28 30 -46 45 -40 33 17 -36 12 -48 -31 -67 -22 -10 -45 -28 -50 -40 -6 -12
-21 -23 -35 -24 -13 -1 -24 -1 -24 1 0 1 11 38 24 81 26 83 36 96 74 96 13 0
20 4 17 10 -8 13 5 13 25 0 13 -8 13 -10 1 -10 -10 0 -5 -10 14 -30 16 -17 36
-30 44 -29 11 0 12 2 4 6 -7 2 -13 14 -12 26 0 21 1 21 9 2 7 -15 9 -16 9 -4
1 9 -8 28 -19 41 l-20 26 50 21 c28 12 55 19 60 16 6 -3 10 0 10 7 0 7 17 23
38 36 68 43 84 60 89 101 5 36 3 41 -26 55 -17 9 -31 19 -31 22 0 3 5 2 10 -1
6 -3 10 -1 10 4 0 6 -9 16 -20 23 -28 18 -25 35 6 41 22 4 28 0 36 -25 6 -16
12 -27 15 -25 2 2 -6 31 -18 62 l-22 59 -18 -35 c-10 -20 -26 -42 -35 -50 -11
-9 -15 -9 -10 -1 4 6 2 12 -3 12 -16 0 -13 -16 6 -36 16 -16 16 -16 -4 -10
-12 4 -24 2 -27 -3 -6 -9 70 -51 92 -51 5 0 15 -7 22 -15 16 -19 -1 -65 -31
-84 -19 -11 -26 -9 -60 18 -21 17 -42 31 -48 31 -5 0 -13 5 -17 12 -5 8 -2 9
9 5 10 -3 17 -3 17 2 0 14 -44 28 -78 25 -21 -3 -31 0 -27 7 4 5 -10 3 -32 -6
-24 -10 -51 -14 -73 -10 -32 5 -33 4 -17 -9 29 -23 3 -30 -99 -27 -58 2 -94
-1 -99 -8 -8 -14 -45 -15 -45 -1 0 5 7 7 15 3 9 -3 24 2 34 11 10 9 22 16 27
15 21 -4 34 2 34 16 0 9 -6 12 -17 8 -13 -5 -13 -3 3 13 17 18 20 18 26 3 4
-9 12 -20 19 -25 9 -5 10 -2 4 12 -14 33 -1 144 17 144 6 0 8 7 4 15 -3 8 0
14 6 12 15 -3 18 63 5 81 -6 8 -5 12 2 12 7 0 9 10 6 28 -6 26 -6 26 9 8 9
-11 16 -27 16 -35 0 -11 3 -12 11 -4 8 8 8 17 0 31 -14 27 -14 63 0 59 6 -1
12 8 14 20 1 14 -3 19 -12 16 -8 -3 -13 2 -13 15 0 14 6 19 23 18 17 -1 22 4
21 22 -2 26 8 28 30 6 17 -17 16 -18 20 29 1 6 5 15 10 18 5 4 5 12 1 19 -6 9
-9 9 -15 0 -5 -8 -9 -7 -13 4 -4 10 -1 16 9 16 8 0 12 4 9 10 -3 5 -13 10 -22
10 -11 0 -14 -6 -9 -25 4 -14 2 -25 -4 -25 -5 0 -10 5 -10 10 0 16 -40 -13
-46 -34 -5 -15 -8 -16 -15 -5 -13 21 -11 26 16 33 16 4 23 11 19 18 -6 9 -9 9
-12 0 -2 -7 -13 -12 -24 -12 -15 0 -18 4 -13 23 7 23 32 47 48 47 5 0 4 -7 -3
-15 -20 -25 -7 -26 38 -5 52 25 52 25 52 -9 0 -16 6 -31 14 -34 15 -6 21 -87
5 -87 -5 0 -9 -5 -9 -10 0 -6 8 -5 20 2 17 11 20 22 18 75 -2 49 -5 60 -14 48
-18 -25 -24 -17 -25 33 -1 26 -3 40 -6 31 -2 -9 -17 -19 -33 -21 -25 -4 -27
-2 -19 13 5 10 13 21 19 24 5 3 7 13 4 23 -4 12 -3 13 3 5 11 -16 47 22 37 39
-5 7 -2 9 9 5 11 -4 14 -2 11 7 -3 7 6 38 20 69 16 34 25 69 23 92 -1 24 3 39
11 41 7 1 8 0 2 -3 -5 -2 -10 -14 -10 -26 0 -27 16 -11 25 25 6 24 4 27 -13
23 -12 -2 -25 2 -31 9 -8 9 -2 11 24 8 22 -3 35 0 35 7 0 7 -4 9 -10 6 -17
-11 -11 7 8 21 12 9 13 13 3 14 -9 0 -11 8 -7 25 4 15 2 25 -5 25 -6 0 -1 12
11 27 13 17 17 29 10 31 -12 4 -59 49 -56 54 0 2 -5 -4 -13 -12 -11 -13 -12
-12 -6 8 5 17 2 27 -12 37 -10 7 -15 17 -10 21 4 4 7 2 7 -4 0 -7 5 -12 11
-12 6 0 8 10 5 23 -3 12 -3 16 0 10 3 -7 12 -13 20 -13 11 0 10 8 -6 37 -23
43 -25 59 -9 69 8 4 9 -1 4 -16 -5 -16 -4 -21 6 -18 8 3 13 15 11 26 -2 15 2
22 12 22 10 0 16 -9 16 -25 0 -18 4 -23 15 -19 8 4 15 1 15 -5 0 -6 -3 -10 -7
-10 -5 1 -15 1 -22 0 -12 -1 -12 -4 -3 -13 7 -7 12 -25 12 -40 0 -15 4 -28 9
-28 16 0 22 18 9 23 -10 3 -9 9 3 23 23 27 30 52 23 80 -7 29 -24 32 -24 4 0
-11 -5 -20 -11 -20 -7 0 -9 10 -5 25 9 34 -1 50 -21 33 -11 -8 -9 0 6 27 11
22 21 46 21 53 0 7 5 10 10 7 6 -3 10 -2 10 3 0 5 -9 12 -20 15 -14 4 -19 12
-18 29 2 17 -2 23 -14 22 -10 -1 -15 2 -12 7 3 5 -2 9 -11 9 -9 0 -13 -4 -10
-10 3 -5 2 -10 -3 -10 -6 0 -12 7 -16 15 -4 12 2 15 28 15 19 0 37 -6 39 -12
4 -10 8 -10 15 0 5 8 13 13 18 12 4 -2 13 5 19 14 12 20 -7 36 -43 36 -14 0
-21 4 -17 11 4 6 13 8 21 5 8 -3 13 -2 13 2 -3 19 2 25 11 12 9 -13 11 -13 21
0 8 12 9 10 4 -7 -3 -13 -1 -31 5 -40 10 -16 11 -16 7 3 -2 12 0 29 5 38 7 12
5 22 -4 33 -11 14 -10 15 12 9 21 -6 22 -5 8 4 -10 6 -18 16 -18 23 0 8 3 8 9
-1 10 -16 36 20 47 64 4 16 11 35 17 42 6 8 6 12 -1 12 -6 0 -13 -6 -16 -12
-5 -15 -37 18 -35 36 0 6 3 5 6 -1 10 -25 32 -13 39 21 7 38 26 60 62 70 12 4
22 13 22 21 0 7 5 15 11 17 6 2 1 12 -11 23 -12 11 -21 15 -20 10 2 -6 2 -23
1 -40 l-2 -30 -13 24 c-10 18 -15 21 -20 10 -3 -8 -5 -2 -3 12 2 16 -1 26 -9
26 -9 0 -11 -9 -8 -27 5 -21 2 -26 -15 -26 -15 0 -17 3 -9 14 8 9 8 16 0 24
-9 9 -12 9 -12 0 0 -6 -11 -1 -25 12 -28 26 -37 58 -10 36 12 -10 15 -10 15 0
0 13 -28 39 -42 40 -17 0 -8 -83 10 -96 16 -12 15 -13 -5 -14 -13 0 -24 8 -28
20 -4 11 -11 18 -16 15 -14 -9 -11 3 7 31 9 13 17 44 17 67 0 27 6 46 16 54
10 8 12 12 4 13 -7 0 -13 5 -13 11 0 6 9 8 20 4 18 -6 19 -4 10 21 -17 44 -4
38 18 -9 12 -25 29 -47 39 -51 16 -5 16 -4 3 6 -8 7 -21 25 -27 40 -10 21 -9
29 3 38 19 16 19 44 -1 37 -8 -4 -17 -1 -21 5 -4 6 -3 8 3 5 5 -3 19 13 31 36
l22 42 0 -33 c0 -18 4 -31 9 -27 12 7 25 -31 16 -45 -3 -5 -2 -17 3 -26 7 -13
11 -11 21 14 7 17 23 40 37 53 14 13 24 34 24 51 0 25 9 33 33 29 5 -1 6 3 2
9 -3 5 -1 10 4 10 6 0 11 10 11 23 0 13 5 28 12 35 6 6 8 15 4 19 -4 4 -11 1
-16 -7 -5 -8 -12 -11 -16 -7 -4 4 0 15 8 24 20 23 32 63 20 63 -6 0 -12 6 -15
14 -4 9 0 12 11 10 12 -3 23 7 34 31 10 19 13 35 8 35 -5 0 -12 -4 -15 -10 -3
-5 -12 -10 -18 -9 -9 0 -9 2 1 6 6 2 12 12 12 21 0 10 16 28 35 41 32 22 65
70 65 95 0 6 13 45 29 86 17 42 32 87 34 100 2 14 7 33 12 43 4 9 5 28 3 42
-3 13 -2 22 3 20 4 -3 13 21 19 52 6 32 15 66 20 75 6 10 10 26 10 37 0 10 6
21 14 24 8 3 17 19 21 36 4 17 13 45 22 61 18 36 10 72 -15 63 -14 -6 -15 -4
-5 8 18 22 -12 134 -39 144 -18 7 -20 55 -3 55 8 0 17 9 20 20 3 11 12 20 18
20 7 1 2 9 -10 19 -12 10 -19 21 -16 25 4 3 1 6 -5 6 -6 0 -14 -4 -17 -10 -11
-17 -24 -11 -31 15 -12 47 -34 22 -34 -40 0 -55 -11 -94 -25 -89 -16 7 -39
-58 -32 -91 2 -14 0 -22 -5 -19 -10 6 -27 -36 -21 -53 3 -6 -1 -21 -7 -33 -9
-18 -9 -21 0 -15 10 6 11 -1 5 -31 -8 -48 -12 -54 -31 -54 -8 0 -12 -5 -9 -10
11 -18 -16 -80 -51 -118 -20 -20 -42 -49 -50 -64 -8 -16 -18 -28 -23 -28 -4 0
-13 -11 -20 -24 -12 -21 -17 -23 -42 -14 -20 7 -34 7 -42 0 -6 -5 -25 -10 -40
-10 -26 0 -27 2 -13 16 8 8 29 15 46 14 17 0 28 4 25 9 -4 5 -12 9 -20 9 -8 0
-16 4 -20 10 -3 5 14 3 38 -4 40 -12 44 -12 43 3 -1 10 9 17 27 19 15 2 25 7
22 12 -3 5 -22 6 -43 3 l-37 -6 27 30 c26 27 26 29 7 30 -12 1 -23 -7 -28 -20
-12 -30 -37 -51 -46 -37 -3 5 0 10 7 11 7 0 -12 7 -42 15 -59 16 -90 38 -89
63 0 10 3 8 9 -6 5 -13 14 -23 20 -23 6 0 3 11 -6 25 -9 14 -21 25 -28 25 -7
0 -7 3 -1 8 6 4 11 26 12 49 1 33 -2 43 -17 48 -15 5 -17 11 -11 28 5 13 12
57 16 100 4 42 12 77 17 77 5 0 7 -3 5 -7 -3 -5 -8 -42 -11 -84 -3 -41 -8 -84
-12 -93 -6 -15 -3 -17 14 -11 19 5 22 2 22 -21 0 -38 37 -112 61 -119 10 -4
19 -13 19 -21 0 -18 1 -18 36 2 l29 16 -27 -5 c-15 -2 -25 0 -22 4 3 5 14 9
25 9 10 0 19 6 19 14 0 9 -7 12 -20 9 -16 -4 -20 0 -21 18 -1 43 -9 73 -22 81
-9 6 -9 8 0 8 7 0 39 26 72 58 62 59 82 90 35 53 -15 -12 -33 -21 -40 -21 -8
0 -14 -7 -14 -16 0 -13 -8 -15 -39 -12 -22 2 -37 0 -35 -4 3 -5 0 -8 -5 -8
-15 0 -14 13 2 29 10 10 8 15 -6 26 -18 13 -18 13 0 17 10 2 23 -2 28 -10 15
-19 44 -5 38 19 -3 10 -9 19 -14 19 -5 0 -6 -7 -3 -15 4 -8 1 -15 -6 -15 -8 0
-11 11 -8 30 2 16 0 32 -6 34 -6 3 1 3 16 1 34 -4 42 4 20 21 -12 10 -13 13
-3 14 11 0 11 3 0 17 -12 14 -12 16 1 11 11 -4 15 2 16 18 1 16 -4 24 -15 25
-12 0 -12 2 4 9 14 6 16 9 5 10 -8 2 -18 2 -22 1 -11 -1 -20 37 -13 59 5 15 2
20 -13 20 -11 0 -22 -7 -26 -15 -7 -18 13 -75 26 -75 5 0 6 -10 3 -21 -5 -14
-3 -19 3 -15 6 3 3 -12 -5 -34 -17 -42 -63 -84 -63 -56 0 7 6 16 14 19 8 3 20
24 27 46 11 36 10 45 -6 76 -24 44 -12 91 23 88 15 -2 22 3 22 14 0 17 13 33
63 81 15 15 27 36 26 47 0 14 -2 16 -6 5 -9 -23 -36 -40 -49 -29 -6 5 -16 4
-24 -4 -10 -10 -11 -9 -5 3 5 9 -1 7 -15 -5 -13 -11 -20 -15 -17 -8 4 6 3 14
-3 18 -5 3 -10 1 -10 -5 0 -7 -6 -8 -19 -1 -10 6 -21 7 -25 4 -3 -3 -6 -2 -6
3 0 5 -24 9 -53 10 -68 1 -139 13 -154 25 -7 6 -13 6 -17 0 -7 -10 -75 -9 -94
3 -7 4 -12 2 -12 -4 0 -8 -6 -8 -20 0 -15 8 -20 8 -20 -2 0 -9 -3 -9 -11 -1
-6 6 -17 9 -24 6 -8 -2 -25 3 -39 12 -16 11 -26 13 -26 6 0 -15 -20 -10 -44
12 -21 18 -41 23 -32 8 4 -5 -3 -7 -15 -4 -16 4 -17 8 -7 14 10 7 10 9 -2 9
-9 0 -22 -6 -29 -12 -8 -7 -11 -8 -8 -2 4 6 -3 20 -16 30 -21 19 -21 19 -7 0
14 -18 14 -18 -7 -6 -12 8 -19 18 -17 22 3 4 -4 8 -15 8 -11 0 -23 5 -27 12
-5 7 -3 8 6 3 8 -5 11 -4 6 3 -4 6 -13 9 -21 5 -8 -3 -15 -1 -15 5 0 17 -90
71 -111 67 -22 -4 -26 13 -4 21 16 7 21 64 6 64 -5 0 -11 -5 -13 -10 -2 -7 -9
-6 -21 2 -25 19 -9 74 21 70 15 -2 22 2 22 12 0 9 -8 16 -20 16 -10 0 -23 8
-29 17 -8 16 -12 15 -32 -12 -13 -16 -24 -34 -26 -39 -1 -6 -4 -21 -7 -34 -4
-18 1 -25 22 -34 22 -9 24 -12 9 -15 -24 -6 -47 14 -47 43 0 12 -4 25 -10 29
-5 3 -7 12 -3 20 3 9 -1 15 -9 15 -22 0 -29 -11 -17 -26 7 -9 7 -19 -1 -34
-10 -18 -17 -21 -43 -15 -18 3 -44 7 -59 8 -14 1 -24 5 -21 10 6 11 51 9 58
-3 10 -16 41 -12 56 7 11 13 11 17 2 20 -18 6 -16 24 4 38 16 12 16 14 0 29
-9 10 -21 15 -26 11 -5 -3 -12 -1 -16 5 -3 5 -17 7 -31 4 -23 -6 -29 1 -25 33
1 7 -7 9 -19 6 -15 -4 -20 0 -20 16 0 13 6 21 17 21 9 0 14 3 10 6 -3 4 4 15
16 26 12 11 15 16 7 12 -8 -4 -3 8 11 27 16 21 42 39 68 47 22 8 41 18 41 24
0 5 -6 8 -12 5 -7 -2 -19 3 -25 12 -10 13 -14 14 -21 3 -9 -13 -31 -28 -82
-54 -14 -7 -32 -19 -40 -27 -13 -13 -15 -12 -18 4 -4 20 15 36 34 28 21 -8
134 79 134 103 0 7 6 15 13 17 7 3 4 6 -6 6 -10 1 -15 6 -12 11 7 12 4 12 -13
1z m-252 -221 c0 -5 -4 -10 -9 -10 -6 0 -13 5 -16 10 -3 6 1 10 9 10 9 0 16
-4 16 -10z m154 -141 c-10 -11 -28 -25 -39 -31 -11 -5 -4 4 15 21 41 36 51 40
24 10z m-250 2 c3 -5 -1 -14 -8 -20 -12 -10 -14 -9 -11 6 2 10 4 19 4 21 2 5
10 2 15 -7z m346 1 c0 -13 -12 -22 -22 -16 -10 6 -1 24 13 24 5 0 9 -4 9 -8z
m-120 -94 c0 -4 -4 -8 -10 -8 -5 0 -10 7 -10 15 0 19 -24 19 -39 1 -8 -10 -9
-16 -1 -21 6 -3 8 -11 4 -16 -3 -6 2 -17 12 -24 17 -13 15 -14 -20 -9 -37 4
-63 14 -38 14 7 0 12 4 12 10 0 5 -8 6 -17 3 -10 -4 1 12 24 34 23 22 39 44
35 49 -4 5 5 -2 21 -15 15 -14 27 -28 27 -33z m-157 -12 c3 -8 1 -17 -6 -19
-7 -2 0 -10 16 -17 15 -7 27 -17 27 -22 0 -11 -28 -10 -35 2 -8 13 -25 3 -25
-13 0 -8 3 -8 9 1 6 10 11 6 19 -17 10 -29 9 -31 -12 -31 -18 0 -26 7 -30 28
-4 15 -9 35 -12 44 -4 13 -1 16 10 12 12 -5 16 0 16 20 0 28 14 35 23 12z
m377 -72 c0 -16 43 -29 66 -20 10 4 14 1 12 -6 -7 -22 -43 -20 -72 3 -15 12
-25 24 -22 27 3 3 0 12 -7 21 -11 14 -10 14 6 2 9 -7 17 -20 17 -27z m-443 11
c0 -5 4 -19 8 -30 6 -15 3 -14 -11 5 -10 14 -23 28 -28 32 -6 4 -1 6 10 6 11
-1 21 -7 21 -13z m124 -14 c-10 -7 -11 -13 -2 -30 9 -17 9 -21 -3 -21 -7 0
-17 7 -20 16 -7 18 10 44 28 44 6 0 5 -4 -3 -9z m54 -31 c-3 -5 -10 -10 -16
-10 -5 0 -9 5 -9 10 0 6 7 10 16 10 8 0 12 -4 9 -10z m-340 -50 c3 -5 1 -10
-4 -10 -6 0 -11 5 -11 10 0 6 2 10 4 10 3 0 8 -4 11 -10z m306 -111 c-9 -22
-10 -22 -10 -3 -1 11 2 24 6 27 12 12 14 0 4 -24z m344 -7 c-3 -3 -11 0 -18 7
-9 10 -8 11 6 5 10 -3 15 -9 12 -12z m-308 -14 c-3 -8 -6 -5 -6 6 -1 11 2 17
5 13 3 -3 4 -12 1 -19z m-430 -25 c-3 -10 -5 -4 -5 12 0 17 2 24 5 18 2 -7 2
-21 0 -30z m748 17 c3 -5 -1 -10 -9 -10 -9 0 -16 5 -16 10 0 6 4 10 9 10 6 0
13 -4 16 -10z m30 1 c3 -5 1 -12 -5 -16 -5 -3 -10 1 -10 9 0 18 6 21 15 7z
m74 -54 c12 -15 12 -17 -3 -11 -9 3 -16 13 -16 22 0 8 1 13 3 11 1 -2 9 -12
16 -22z m-759 3 c0 -5 -4 -10 -10 -10 -5 0 -10 5 -10 10 0 6 5 10 10 10 6 0
10 -4 10 -10z m390 -51 c0 -14 -17 -10 -23 5 -4 10 -1 13 9 9 7 -3 14 -9 14
-14z m465 -29 c3 -5 1 -10 -4 -10 -6 0 -11 5 -11 10 0 6 2 10 4 10 3 0 8 -4
11 -10z m79 -15 c3 -8 1 -15 -4 -15 -6 0 -10 7 -10 15 0 8 2 15 4 15 2 0 6 -7
10 -15z m-969 -25 c3 -5 1 -10 -4 -10 -6 0 -11 5 -11 10 0 6 2 10 4 10 3 0 8
-4 11 -10z m440 -9 c-3 -6 -11 -11 -16 -11 -5 0 -4 6 3 14 14 16 24 13 13 -3z
m29 -27 c3 -8 2 -12 -4 -9 -6 3 -10 10 -10 16 0 14 7 11 14 -7z m25 -35 c12 2
13 0 3 -12 -10 -12 -5 -14 38 -11 40 3 50 1 50 -12 0 -8 -4 -12 -10 -9 -5 3
-10 1 -10 -4 0 -13 -37 -15 -44 -2 -3 4 -19 11 -36 15 -17 3 -29 10 -26 15 3
5 -1 11 -9 15 -8 3 -15 10 -15 16 0 7 8 6 23 -2 12 -7 29 -11 36 -9z m148 -15
c-3 -3 -12 -4 -19 -1 -8 3 -5 6 6 6 11 1 17 -2 13 -5z m109 -10 c18 -14 18
-14 -6 -3 -31 14 -36 19 -24 19 6 0 19 -7 30 -16z m361 -71 c-3 -10 -5 -2 -5
17 0 19 2 27 5 18 2 -10 2 -26 0 -35z m-407 2 c9 -8 24 -15 33 -15 9 0 19 -4
22 -10 10 -16 -7 -12 -50 12 -22 11 -53 25 -70 29 -27 8 -26 8 9 4 21 -2 46
-11 56 -20z m45 15 c3 -6 -1 -7 -9 -4 -18 7 -21 14 -7 14 6 0 13 -4 16 -10z
m-775 -40 c0 -5 -5 -10 -11 -10 -5 0 -7 5 -4 10 3 6 8 10 11 10 2 0 4 -4 4
-10z m976 -62 c23 -27 24 -29 3 -10 -14 12 -31 22 -37 22 -7 0 -12 5 -12 10 0
18 16 10 46 -22z m-216 2 c13 -9 13 -10 0 -10 -8 0 -22 5 -30 10 -13 9 -13 10
0 10 8 0 22 -5 30 -10z m438 -25 c-3 -3 -9 2 -12 12 -6 14 -5 15 5 6 7 -7 10
-15 7 -18z m-318 9 c0 -3 -10 -14 -22 -24 -21 -16 -21 -20 -9 -60 9 -29 32
-62 72 -102 65 -66 78 -94 25 -53 -43 33 -116 141 -116 172 0 26 27 73 41 73
5 0 9 -3 9 -6z m247 -34 c6 -14 18 -75 27 -135 13 -99 42 -200 82 -292 8 -17
14 -39 14 -48 0 -9 5 -26 12 -38 6 -12 15 -51 20 -87 25 -196 22 -217 -13 -84
-12 43 -25 93 -29 109 -6 21 -8 24 -10 10 -3 -34 -8 -57 -15 -63 -4 -4 -4 14
0 39 4 29 3 56 -5 70 -11 23 -11 24 6 4 16 -19 16 -19 10 10 -4 17 -14 43 -22
59 -8 16 -14 35 -14 43 0 20 -16 15 -29 -9 l-11 -23 6 23 c7 27 -3 75 -14 68
-4 -2 -8 4 -8 15 0 10 4 19 8 19 4 0 8 -5 8 -12 0 -6 3 -9 6 -6 3 4 1 15 -5
26 -6 11 -13 55 -16 98 -9 130 -12 152 -26 184 -14 30 -29 40 -29 18 0 -6 -2
-9 -5 -6 -3 3 -3 13 1 22 9 23 36 16 51 -14z m-92 2 c-3 -3 -11 0 -18 7 -9 10
-8 11 6 5 10 -3 15 -9 12 -12z m445 -37 c13 -14 21 -25 18 -25 -2 0 -15 11
-28 25 -13 14 -21 25 -18 25 2 0 15 -11 28 -25z m676 -1 c-4 -9 -9 -15 -11
-12 -3 3 -3 13 1 22 4 9 9 15 11 12 3 -3 3 -13 -1 -22z m-502 7 c3 -5 -1 -11
-9 -15 -9 -3 -15 0 -15 9 0 16 16 20 24 6z m-834 -53 c-8 -7 -12 -9 -8 -4 4 5
2 18 -4 30 -10 20 -10 20 8 4 16 -15 16 -20 4 -30z m790 27 c0 -1 -8 -9 -17
-16 -10 -7 -15 -9 -11 -5 4 5 3 15 -3 22 -8 9 -5 11 10 7 12 -3 21 -7 21 -8z
m-1647 -45 c-7 -8 -22 24 -16 34 4 5 10 1 13 -10 4 -10 6 -21 3 -24z m807 36
c0 -2 -7 -6 -15 -10 -8 -3 -15 -1 -15 4 0 6 7 10 15 10 8 0 15 -2 15 -4z m859
-24 c13 -25 11 -82 -3 -82 -15 0 -16 40 -1 41 5 0 -1 5 -15 11 -24 10 -24 10
-5 18 11 5 14 9 8 9 -7 1 -13 6 -13 11 0 17 19 11 29 -8z m-523 -17 c4 -14 4
-29 0 -32 -3 -4 -6 3 -6 13 0 11 -5 25 -12 32 -9 9 -9 12 0 12 6 0 14 -11 18
-25z m-171 -15 c3 -5 -1 -10 -9 -10 -9 0 -16 5 -16 10 0 6 4 10 9 10 6 0 13
-4 16 -10z m-118 -6 c-3 -3 -12 -4 -19 -1 -8 3 -5 6 6 6 11 1 17 -2 13 -5z
m652 -44 c1 -13 0 -13 -9 0 -5 8 -9 24 -9 35 l0 20 9 -20 c5 -11 9 -27 9 -35z
m-599 5 c7 -9 8 -15 2 -15 -5 0 -12 7 -16 15 -3 8 -4 15 -2 15 2 0 9 -7 16
-15z m635 -25 c3 -5 2 -10 -4 -10 -5 0 -13 5 -16 10 -3 6 -2 10 4 10 5 0 13
-4 16 -10z m-645 -4 c0 -3 -4 -8 -10 -11 -5 -3 -10 -1 -10 4 0 6 5 11 10 11 6
0 10 -2 10 -4z m-90 -16 c0 -5 -4 -10 -10 -10 -5 0 -10 5 -10 10 0 6 5 10 10
10 6 0 10 -4 10 -10z m86 -35 c-20 -15 -36 -19 -36 -10 0 5 38 23 50 24 3 0
-4 -6 -14 -14z m170 -20 c9 -8 11 -15 6 -15 -5 0 -15 7 -22 15 -7 8 -9 15 -6
15 4 0 14 -7 22 -15z m-1041 -16 c4 -11 4 -23 0 -27 -7 -7 -25 17 -25 36 0 20
18 14 25 -9z m1101 -9 c8 0 14 -4 14 -10 0 -5 -4 -10 -8 -10 -12 0 -32 22 -31
35 0 5 3 4 6 -2 2 -7 11 -13 19 -13z m519 10 c3 -5 -1 -10 -10 -10 -9 0 -13 5
-10 10 3 6 8 10 10 10 2 0 7 -4 10 -10z m-55 -20 c-8 -5 -19 -10 -25 -10 -5 0
-3 5 5 10 8 5 20 10 25 10 6 0 3 -5 -5 -10z m-1480 -71 c0 -9 11 -33 25 -53
14 -20 25 -49 24 -64 0 -15 -3 -21 -6 -14 -2 6 -10 12 -16 12 -7 0 -18 9 -24
20 -11 16 -10 18 2 14 20 -8 19 -6 -10 52 -14 27 -25 60 -25 74 l1 25 14 -25
c8 -14 14 -32 15 -41z m1007 30 c2 -11 -1 -18 -6 -15 -4 3 -6 -7 -4 -22 4 -21
2 -24 -6 -12 -14 19 -14 60 0 60 5 0 7 6 3 13 -4 6 -3 9 1 4 5 -4 10 -17 12
-28z m553 16 c0 -9 -6 -12 -16 -8 -13 5 -13 7 -2 14 17 11 18 11 18 -6z m-894
-20 c10 -8 14 -15 9 -15 -6 0 -16 5 -23 12 -8 8 -12 9 -12 1 0 -6 -6 -18 -13
-25 -7 -7 -18 -22 -25 -33 -6 -11 -12 -15 -12 -8 0 13 42 82 51 83 3 0 14 -7
25 -15z m69 5 c8 -13 -15 -13 -35 0 -12 8 -11 10 7 10 12 0 25 -4 28 -10z
m718 3 c-7 -2 -19 -2 -25 0 -7 3 -2 5 12 5 14 0 19 -2 13 -5z m-1490 -40 c3 6
6 2 6 -10 1 -29 -10 -29 -35 -2 -19 22 -19 22 3 11 16 -9 23 -9 26 1z m777 -7
c0 -3 -4 -8 -10 -11 -5 -3 -10 -1 -10 4 0 6 5 11 10 11 6 0 10 -2 10 -4z m120
-10 c0 -2 -7 -6 -15 -10 -8 -3 -15 -1 -15 4 0 6 7 10 15 10 8 0 15 -2 15 -4z
m772 -19 c-10 -11 -18 -14 -20 -8 -2 6 -8 9 -13 6 -5 -4 -7 0 -4 7 3 7 16 13
29 13 23 0 24 -1 8 -18z m-1218 -9 c-3 -5 7 -3 22 5 17 8 39 11 54 7 l25 -6
-25 -9 -25 -8 29 -8 c16 -4 43 -6 60 -4 30 5 30 4 -4 -6 -68 -21 -67 -20 -45
-29 23 -9 63 -3 85 14 13 9 13 9 2 -5 -13 -17 -57 -29 -119 -34 -17 -2 -36 -6
-42 -9 -9 -6 -31 22 -31 39 0 4 15 4 33 1 29 -4 28 -4 -5 6 -41 12 -53 29 -15
21 22 -4 22 -4 1 9 -12 7 -19 19 -17 26 3 6 9 10 14 6 5 -3 7 -10 3 -16z m635
-41 c-1 -29 5 -65 11 -82 7 -16 14 -59 16 -95 1 -36 0 -57 -2 -47 -3 9 -10 15
-15 11 -6 -3 -7 10 -3 35 8 48 -2 54 -17 11 -6 -16 -14 -30 -17 -30 -18 1 -32
19 -38 50 -4 27 -3 32 5 20 9 -12 10 -10 6 11 -8 32 11 143 25 147 6 2 10 10
10 18 0 9 4 12 10 9 5 -3 9 -29 9 -58z m-318 24 c-7 -12 -17 -18 -26 -15 -18
7 -10 24 11 24 8 0 14 5 14 12 0 6 3 9 6 6 3 -4 1 -16 -5 -27z m-551 -1 c8 -5
12 -11 9 -14 -3 -3 -14 1 -25 9 -21 16 -8 20 16 5z m940 -25 c0 -5 -5 -3 -10
5 -5 8 -10 20 -10 25 0 6 5 3 10 -5 5 -8 10 -19 10 -25z m445 15 c16 -7 13 -8
-13 -6 -17 2 -35 6 -39 9 -9 10 28 7 52 -3z m-1186 -45 c0 -5 -4 -3 -9 5 -5 8
-9 22 -9 30 0 16 17 -16 18 -35z m431 35 c0 -5 -4 -10 -10 -10 -5 0 -10 5 -10
10 0 6 5 10 10 10 6 0 10 -4 10 -10z m-575 -10 c8 -13 -5 -13 -25 0 -13 8 -13
10 2 10 9 0 20 -4 23 -10z m716 -13 c-5 -13 -7 -35 -4 -50 3 -14 1 -39 -4 -54
-11 -30 -7 -56 7 -48 5 3 7 -17 5 -45 -2 -27 0 -72 4 -100 8 -52 -4 -71 -15
-22 -11 52 -15 62 -25 62 -6 0 -6 -7 1 -19 14 -27 13 -32 -6 -29 -10 2 -19 -3
-21 -9 -3 -8 4 -13 15 -13 22 0 41 -38 24 -49 -5 -3 -12 -16 -16 -28 -6 -18
-4 -22 8 -17 12 5 15 2 10 -10 -3 -9 -10 -16 -14 -16 -27 0 -65 80 -42 88 7 2
12 8 12 13 0 4 -8 5 -17 2 -12 -5 -15 -2 -11 8 4 10 -1 15 -13 15 -23 0 -23
-1 -4 -19 13 -13 13 -16 -1 -27 -12 -11 -13 -10 -9 2 4 9 -1 18 -10 22 -9 3
-13 10 -10 16 7 11 -13 33 -35 38 -8 2 -22 10 -31 18 -8 8 -26 14 -39 14 -22
0 -22 1 6 22 16 13 30 26 32 30 2 4 10 4 18 1 9 -3 14 0 12 7 -5 20 53 48 87
43 25 -4 33 0 47 25 23 38 13 46 -17 16 -23 -23 -55 -33 -55 -16 1 4 14 22 30
41 24 28 32 32 44 22 12 -10 14 -6 13 23 0 19 5 41 12 50 19 22 22 20 12 -7z
m-191 3 c0 -5 -5 -10 -11 -10 -5 0 -7 5 -4 10 3 6 8 10 11 10 2 0 4 -4 4 -10z
m-217 -49 c47 -7 57 -10 40 -16 -13 -4 -20 -11 -17 -16 3 -5 9 -7 14 -4 5 3
11 1 14 -4 4 -5 2 -12 -4 -16 -13 -8 -52 19 -42 30 4 4 -1 5 -10 2 -10 -4 -18
-2 -18 3 0 6 -6 10 -13 10 -7 0 -22 7 -33 16 -10 8 -13 13 -6 9 6 -3 40 -10
75 -14z m428 -14 c-8 -8 -11 -7 -11 4 0 20 13 34 18 19 3 -7 -1 -17 -7 -23z
m-516 14 c3 -6 -3 -9 -14 -8 -11 0 -17 5 -15 9 7 11 22 10 29 -1z m645 -16 c0
-9 6 -18 13 -21 7 -2 14 -21 15 -42 2 -27 0 -33 -8 -22 -5 8 -10 25 -10 36 0
12 -7 24 -15 28 -17 6 -21 36 -5 36 6 0 10 -7 10 -15z m-597 -20 c0 -6 -7 -11
-16 -13 -12 -3 -15 1 -11 13 7 17 25 17 27 0z m167 3 c0 -11 -22 -10 -39 1
-10 7 -7 9 12 8 15 -1 27 -5 27 -9z m-495 -16 c-3 -3 -11 0 -18 7 -9 10 -8 11
6 5 10 -3 15 -9 12 -12z m535 14 c0 -3 -4 -8 -10 -11 -5 -3 -10 -1 -10 4 0 6
5 11 10 11 6 0 10 -2 10 -4z m-340 -16 c0 -5 -5 -10 -11 -10 -5 0 -7 5 -4 10
3 6 8 10 11 10 2 0 4 -4 4 -10z m1150 -30 c-8 -5 -24 -10 -35 -10 -17 0 -17 2
-5 10 8 5 24 10 35 10 17 0 17 -2 5 -10z m-1284 -15 c-3 -8 4 -21 16 -29 12
-9 19 -19 15 -23 -12 -11 -50 34 -44 51 4 9 9 16 13 16 3 0 4 -7 0 -15z m1380
-8 c25 -24 63 -179 64 -256 0 -53 0 -53 -27 -46 -14 3 -37 14 -50 24 -21 17
-21 19 -4 24 17 4 18 10 9 58 -5 30 -18 72 -28 94 -13 29 -15 42 -7 47 8 5 6
8 -5 8 -10 0 -18 4 -18 9 0 5 -10 11 -22 15 -22 5 -22 6 -4 19 20 14 79 17 92
4z m-899 -13 c-3 -3 -12 -4 -19 -1 -8 3 -5 6 6 6 11 1 17 -2 13 -5z m432 -63
l-2 -26 -4 25 c-3 14 -10 32 -16 40 -11 13 -10 13 6 1 9 -7 16 -25 16 -40z
m-111 14 c15 -32 15 -55 1 -55 -5 0 -7 -5 -4 -10 4 -6 11 -7 17 -4 6 4 8 2 5
-3 -4 -6 0 -16 8 -23 8 -7 12 -17 9 -22 -3 -5 2 -8 11 -6 10 2 20 -2 22 -8 5
-15 -43 -24 -56 -11 -6 6 -11 21 -11 34 0 13 -7 26 -15 29 -8 4 -15 12 -15 19
0 8 -5 17 -12 21 -7 4 -8 3 -4 -4 4 -7 3 -12 -2 -12 -12 0 -22 24 -22 52 0 14
5 18 15 14 8 -3 15 -1 15 4 0 20 27 9 38 -15z m-718 -5 c0 -5 -2 -10 -4 -10
-3 0 -8 5 -11 10 -3 6 -1 10 4 10 6 0 11 -4 11 -10z m357 -6 c-3 -3 -12 -4
-19 -1 -8 3 -5 6 6 6 11 1 17 -2 13 -5z m525 -83 c22 -25 29 -53 19 -69 -6
-10 -14 0 -30 32 -11 25 -21 48 -21 51 0 11 16 4 32 -14z m-572 3 c0 -3 -6
-12 -14 -19 -12 -12 -16 -12 -26 -1 -9 11 -7 15 7 19 28 7 33 7 33 1z m950 -4
c0 -5 -5 -10 -11 -10 -5 0 -7 5 -4 10 3 6 8 10 11 10 2 0 4 -4 4 -10z m-893
-36 c0 -8 -7 -14 -14 -14 -8 0 -12 4 -8 9 3 5 1 12 -5 16 -5 3 -10 10 -10 16
0 5 8 4 18 -2 10 -7 19 -18 19 -25z m117 15 c-3 -5 -10 -7 -15 -3 -5 3 -7 10
-3 15 3 5 10 7 15 3 5 -3 7 -10 3 -15z m221 1 c3 -5 1 -10 -4 -10 -6 0 -11 5
-11 10 0 6 2 10 4 10 3 0 8 -4 11 -10z m-215 -21 c0 -16 -13 -39 -22 -39 -5 0
-7 4 -3 9 3 5 -2 16 -11 25 -14 14 -13 16 10 14 14 -1 26 -6 26 -9z m-85 -9
c3 -5 1 -10 -4 -10 -6 0 -11 5 -11 10 0 6 2 10 4 10 3 0 8 -4 11 -10z m309
-25 c5 -22 4 -26 -4 -15 -5 8 -10 24 -10 34 0 26 6 18 14 -19z m478 15 l22
-20 -30 -1 c-21 -1 -24 -3 -8 -6 12 -2 30 -13 40 -24 18 -20 18 -21 0 -35 -10
-7 -23 -11 -27 -8 -20 12 -7 -16 13 -30 16 -11 18 -16 8 -17 -11 0 -11 -2 -2
-6 6 -2 12 -12 12 -20 0 -14 -2 -14 -18 0 -26 24 -39 21 -17 -3 16 -18 17 -21
1 -44 -20 -32 -46 -24 -46 14 0 16 -3 36 -6 45 -5 11 0 18 15 22 11 3 21 10
21 15 0 5 -4 6 -10 3 -5 -3 -10 -3 -11 2 0 4 -3 26 -5 48 -4 30 -1 43 12 52
10 7 13 13 8 13 -6 0 -16 -6 -22 -12 -10 -10 -15 -10 -22 2 -16 24 -12 30 20
30 17 0 40 -9 52 -20z m-742 -15 c0 -18 -5 -25 -20 -25 -11 0 -20 4 -20 10 0
5 7 7 16 3 14 -5 15 -3 5 15 -10 18 -9 22 4 22 9 0 15 -9 15 -25z m200 -10 c0
-8 -4 -15 -10 -15 -5 0 -7 7 -4 15 4 8 8 15 10 15 2 0 4 -7 4 -15z m-190 -29
c0 -2 -7 -7 -16 -10 -8 -3 -12 -2 -9 4 6 10 25 14 25 6z m318 -30 c13 5 14 4
3 -4 -19 -13 -41 -4 -41 17 1 14 2 14 11 -1 5 -10 17 -15 27 -12z m-618 -8 c0
-6 -6 -5 -15 2 -8 7 -15 14 -15 16 0 2 7 1 15 -2 8 -4 15 -11 15 -16z m424 -3
c3 -8 1 -15 -4 -15 -6 0 -10 7 -10 15 0 8 2 15 4 15 2 0 6 -7 10 -15z m681 4
c10 -14 1 -21 -19 -13 -9 3 -13 10 -10 15 7 12 21 11 29 -2z m-745 -30 c0 -6
-4 -7 -10 -4 -5 3 -10 11 -10 16 0 6 5 7 10 4 6 -3 10 -11 10 -16z m120 2 c0
-24 -28 -54 -42 -45 -5 3 0 12 11 21 12 8 21 21 21 29 0 8 2 14 5 14 3 0 5 -9
5 -19z m800 -2 c0 -5 -4 -9 -10 -9 -5 0 -10 7 -10 16 0 8 5 12 10 9 6 -3 10
-10 10 -16z m-670 -14 c-5 -14 -7 -32 -4 -40 4 -8 1 -15 -5 -15 -15 0 -14 53
1 68 17 17 19 15 8 -13z m179 -15 c19 -36 19 -40 4 -40 -13 0 -14 -3 -5 -12 7
-7 12 -24 12 -39 0 -15 5 -31 12 -35 8 -5 9 0 6 14 -4 12 -2 25 3 28 16 10 9
-35 -12 -76 -23 -43 -31 -50 -29 -22 3 25 -11 62 -22 62 -6 0 -8 9 -5 20 3 11
0 20 -5 20 -6 0 -6 6 2 15 6 8 12 35 12 60 1 25 2 45 4 45 1 0 11 -18 23 -40z
m-396 10 c3 -11 1 -23 -4 -26 -5 -3 -9 -1 -9 5 0 5 -3 16 -6 25 -3 9 -2 16 4
16 5 0 12 -9 15 -20z m57 10 c0 -5 -2 -10 -4 -10 -3 0 -8 5 -11 10 -3 6 -1 10
4 10 6 0 11 -4 11 -10z m107 -12 c-3 -8 -6 -5 -6 6 -1 11 2 17 5 13 3 -3 4
-12 1 -19z m-427 -3 c14 -1 28 -3 32 -3 4 -1 16 -19 27 -40 14 -27 17 -42 9
-53 -8 -11 -9 -11 -4 4 3 9 0 17 -6 17 -6 0 -17 8 -24 18 -12 15 -15 15 -24 2
-5 -8 -10 -10 -10 -4 0 5 5 15 11 21 9 9 5 14 -15 19 -14 3 -33 4 -41 0 -10
-4 -15 1 -15 15 0 16 4 19 18 14 9 -4 28 -8 42 -10z m157 -42 c-13 -12 -34 7
-34 31 l0 26 19 -26 c11 -14 18 -28 15 -31z m869 22 c-4 -14 -11 -25 -16 -25
-13 0 -13 16 1 42 14 26 23 16 15 -17z m-926 5 c0 -5 -4 -10 -10 -10 -5 0 -10
5 -10 10 0 6 5 10 10 10 6 0 10 -4 10 -10z m330 -10 c0 -5 -5 -10 -11 -10 -5
0 -7 5 -4 10 3 6 8 10 11 10 2 0 4 -4 4 -10z m-57 -29 c2 -10 1 -25 -4 -32 -5
-8 -9 -12 -10 -9 -6 39 -6 60 1 60 4 0 10 -9 13 -19z m66 -20 c-1 -15 -18 -45
-20 -36 -7 39 -5 53 7 48 8 -3 14 -8 13 -12z m141 -19 c0 -15 -2 -15 -10 -2
-13 20 -13 33 0 25 6 -3 10 -14 10 -23z m-478 -7 c-2 -14 -8 -25 -13 -25 -10
0 -11 12 -3 34 10 25 22 19 16 -9z m455 -41 c-4 -26 -2 -32 9 -27 8 3 14 0 14
-7 0 -6 5 -8 10 -5 6 3 10 1 10 -4 0 -13 -2 -13 -34 -1 -23 9 -26 15 -26 62 1
43 3 49 11 34 6 -10 9 -33 6 -52z m538 56 c3 -5 1 -10 -4 -10 -6 0 -11 5 -11
10 0 6 2 10 4 10 3 0 8 -4 11 -10z m-359 -19 c-3 -5 5 -12 19 -15 14 -4 25
-11 25 -16 0 -5 6 -7 14 -4 9 3 22 -6 33 -23 10 -15 28 -37 40 -49 19 -18 21
-27 16 -77 -5 -47 -8 -55 -19 -46 -8 6 -14 19 -14 28 -1 20 -36 68 -45 59 -4
-3 1 -19 10 -35 l17 -28 -26 29 c-15 15 -26 38 -25 50 3 43 -1 51 -15 27 l-14
-25 -14 30 c-9 16 -18 46 -22 67 -6 30 -4 37 9 37 9 0 14 -4 11 -9z m-565 -21
c6 0 7 5 3 12 -4 6 -3 8 3 5 19 -12 46 -86 38 -104 -6 -15 -9 -13 -15 13 -10
46 -19 56 -43 49 -15 -4 -18 -3 -9 3 7 5 11 15 9 23 -2 8 -2 11 0 7 3 -5 9 -8
14 -8z m425 -27 c-10 -10 -19 5 -10 18 6 11 8 11 12 0 2 -7 1 -15 -2 -18z
m-311 -21 c-3 -4 -10 0 -15 8 -6 9 -5 17 3 22 13 8 24 -19 12 -30z m92 6 c-3
-7 -5 -2 -5 12 0 14 2 19 5 13 2 -7 2 -19 0 -25z m62 5 c0 -25 -1 -26 -9 -8
-12 27 -12 35 0 35 6 0 10 -12 9 -27z m-79 7 c0 -5 -2 -10 -4 -10 -3 0 -8 5
-11 10 -3 6 -1 10 4 10 6 0 11 -4 11 -10z m-352 -20 c-7 -10 -14 -18 -15 -16
-6 6 9 36 18 36 5 0 4 -9 -3 -20z m369 -50 c-4 -35 -3 -39 9 -29 8 7 14 7 14
1 0 -5 -7 -15 -15 -22 -12 -10 -16 -8 -25 15 -13 33 -13 48 0 40 6 -3 10 3 10
14 0 12 3 21 6 21 4 0 4 -18 1 -40z m-311 7 c4 -4 2 -7 -5 -7 -7 0 -9 -4 -6
-10 3 -5 0 -7 -9 -4 -23 9 -29 34 -6 31 11 -2 23 -6 26 -10z m671 -9 c4 -7 8
-17 8 -23 0 -5 12 -16 28 -23 15 -7 27 -17 27 -22 0 -4 3 -16 7 -26 4 -12 3
-15 -5 -10 -8 4 -10 2 -6 -7 3 -8 1 -18 -5 -21 -5 -4 -12 3 -16 14 -3 11 -13
20 -22 20 -8 0 -13 6 -10 13 2 6 10 11 16 10 17 -4 13 14 -5 21 -20 8 -34 -1
-34 -22 0 -13 -2 -14 -12 -3 -10 11 -10 14 0 18 15 6 16 33 1 33 -8 0 -9 4 0
13 6 8 8 17 4 20 -3 4 -1 7 5 7 6 0 14 -6 19 -12z m-643 -14 c3 -8 2 -12 -4
-9 -6 3 -10 10 -10 16 0 14 7 11 14 -7z m546 -4 c0 -5 -4 -10 -10 -10 -5 0
-10 5 -10 10 0 6 5 10 10 10 6 0 10 -4 10 -10z m130 -10 c0 -5 -2 -10 -4 -10
-3 0 -8 5 -11 10 -3 6 -1 10 4 10 6 0 11 -4 11 -10z m-646 -8 c2 -4 -5 -9 -17
-9 -17 -2 -19 0 -7 7 18 12 18 12 24 2z m36 -12 c0 -5 -5 -10 -11 -10 -5 0 -7
5 -4 10 3 6 8 10 11 10 2 0 4 -4 4 -10z m230 -40 c0 -5 -4 -10 -10 -10 -5 0
-10 5 -10 10 0 6 5 10 10 10 6 0 10 -4 10 -10z m467 -30 c10 -15 10 -22 -4
-35 -12 -12 -13 -19 -4 -28 19 -19 12 -26 -13 -14 -13 7 -22 15 -20 19 3 5 0
8 -5 8 -6 0 -11 4 -11 10 0 5 6 7 14 4 8 -3 14 1 13 8 -2 50 10 61 30 28z
m-92 -19 c3 -5 2 -12 -3 -15 -5 -3 -9 1 -9 9 0 17 3 19 12 6z m-44 -44 c-10
-9 -11 -8 -5 6 3 10 9 15 12 12 3 -3 0 -11 -7 -18z m34 3 c3 -5 1 -10 -4 -10
-6 0 -11 5 -11 10 0 6 2 10 4 10 3 0 8 -4 11 -10z m-365 -39 c0 -6 -4 -13 -10
-16 -5 -3 -10 1 -10 9 0 9 5 16 10 16 6 0 10 -4 10 -9z m415 -25 c14 -8 22
-17 17 -20 -6 -3 -21 3 -33 14 -28 23 -22 25 16 6z m50 4 c3 -5 1 -10 -4 -10
-6 0 -11 5 -11 10 0 6 2 10 4 10 3 0 8 -4 11 -10z m108 -4 c4 -10 1 -13 -9 -9
-15 6 -19 23 -5 23 5 0 11 -7 14 -14z m-243 -31 c0 -8 -4 -17 -10 -20 -6 -4
-10 5 -10 20 0 15 4 24 10 20 6 -3 10 -12 10 -20z m173 -30 c-9 -19 -23 -37
-30 -40 -9 -3 -7 5 6 21 12 15 21 33 21 40 0 8 4 14 10 14 5 0 2 -16 -7 -35z
m-250 -15 c-3 -11 -7 -20 -8 -20 -1 0 -5 9 -8 20 -3 12 0 20 8 20 8 0 11 -8 8
-20z m297 -9 c0 -9 5 -22 12 -29 8 -8 8 -12 1 -12 -11 0 -23 22 -30 53 -2 10
1 16 7 12 5 -3 10 -14 10 -24z m47 23 c-3 -3 -12 -4 -19 -1 -8 3 -5 6 6 6 11
1 17 -2 13 -5z m-67 -45 c0 -5 -7 -9 -15 -9 -9 0 -12 6 -9 15 6 15 24 11 24
-6z m-266 -14 c-4 -8 -8 -15 -10 -15 -2 0 -4 7 -4 15 0 8 4 15 10 15 5 0 7 -7
4 -15z m276 -20 c0 -8 -4 -15 -10 -15 -5 0 -10 7 -10 15 0 8 5 15 10 15 6 0
10 -7 10 -15z m-55 -15 c3 -5 1 -10 -4 -10 -6 0 -11 5 -11 10 0 6 2 10 4 10 3
0 8 -4 11 -10z m-155 -74 c0 -2 -7 -7 -16 -10 -8 -3 -12 -2 -9 4 6 10 25 14
25 6z m-100 -90 c0 -3 -4 -8 -10 -11 -5 -3 -10 -1 -10 4 0 6 5 11 10 11 6 0
10 -2 10 -4z m155 -85 c-7 -24 -35 -29 -35 -6 0 13 31 38 38 30 2 -2 1 -13 -3
-24z m-52 -11 c-3 -11 -9 -17 -14 -15 -10 7 -1 35 11 35 5 0 6 -9 3 -20z m87
-21 c0 8 2 12 5 9 3 -3 2 -13 -1 -22 -5 -14 -9 -15 -15 -4 -5 7 -9 18 -9 23 0
6 5 3 10 -5 8 -12 10 -12 10 -1z m-146 -24 c-4 -8 -13 -15 -20 -15 -12 0 -12
3 -2 15 17 19 29 19 22 0z m201 -25 c-4 -12 -9 -19 -12 -17 -3 3 -2 15 2 27 4
12 9 19 12 17 3 -3 2 -15 -2 -27z m-225 -10 c0 -5 -4 -10 -10 -10 -5 0 -10 5
-10 10 0 6 5 10 10 10 6 0 10 -4 10 -10z m-30 -14 c0 -3 -4 -8 -10 -11 -5 -3
-10 -1 -10 4 0 6 5 11 10 11 6 0 10 -2 10 -4z m108 -263 c-9 -44 -14 -53 -32
-52 -20 0 -20 1 -2 8 14 5 16 10 8 15 -9 5 -6 18 9 48 11 22 22 38 24 36 2 -1
-2 -27 -7 -55z m-278 34 c0 -7 -7 -22 -15 -33 -13 -17 -13 -16 -3 14 13 34 18
40 18 19z m345 -27 c-2 -27 -15 -38 -15 -13 0 16 8 33 15 33 1 0 1 -9 0 -20z
m60 -30 c3 -5 1 -10 -4 -10 -6 0 -11 5 -11 10 0 6 2 10 4 10 3 0 8 -4 11 -10z
m-9 -33 c8 3 14 0 14 -7 0 -6 6 -8 13 -5 6 4 3 -1 -7 -9 -14 -11 -22 -13 -27
-5 -4 6 -12 8 -18 4 -8 -5 -11 2 -7 22 6 39 8 41 13 16 3 -14 9 -20 19 -16z
m-59 1 c-3 -8 -6 -5 -6 6 -1 11 2 17 5 13 3 -3 4 -12 1 -19z m-147 -23 c0 -8
-4 -15 -10 -15 -5 0 -7 7 -4 15 4 8 8 15 10 15 2 0 4 -7 4 -15z m103 -32 c-5
-2 -7 -19 -5 -38 3 -21 0 -35 -7 -35 -6 0 -11 -17 -11 -40 0 -50 -18 -90 -41
-90 -16 0 -15 3 6 26 14 15 25 34 24 43 0 11 -4 9 -11 -6 -6 -13 -15 -23 -21
-23 -5 0 -21 -12 -35 -27 -26 -28 -26 -28 -4 -31 27 -4 35 -28 22 -70 -5 -18
-7 -39 -4 -45 12 -33 -77 -111 -268 -232 -17 -11 -51 -39 -74 -63 -36 -35 -47
-41 -63 -33 -15 8 -20 6 -29 -13 -5 -12 -35 -40 -66 -60 -31 -20 -56 -41 -56
-47 0 -5 -11 -15 -25 -21 -16 -7 -25 -19 -25 -33 0 -12 -10 -30 -21 -41 -22
-19 -22 -19 -9 5 11 22 11 23 -6 15 -25 -11 -103 -9 -116 4 -7 7 9 28 47 66
33 32 54 60 50 67 -5 8 -1 9 13 5 11 -4 23 -2 26 3 4 6 13 8 21 5 8 -4 12 -11
8 -17 -7 -11 6 -5 49 25 16 11 32 16 38 13 5 -3 18 -1 27 4 10 6 13 11 6 11
-9 0 -8 7 2 27 8 15 12 31 9 37 -3 6 1 3 10 -8 8 -10 20 -15 26 -11 6 3 9 1 8
-6 -2 -6 3 -14 10 -16 7 -3 12 3 12 14 0 15 2 16 10 3 9 -13 12 -13 21 3 19
33 64 67 87 67 13 0 21 4 18 8 -3 5 12 19 34 31 26 14 37 27 33 36 -3 9 1 15
11 15 9 0 16 5 16 10 0 6 7 10 15 10 17 0 95 67 95 82 0 6 -8 0 -18 -13 -13
-15 -21 -19 -26 -11 -4 7 -2 12 3 12 6 0 11 4 11 8 0 4 -9 8 -20 8 -23 0 -25
-7 -9 -23 14 -14 1 -36 -17 -29 -8 3 -14 -1 -14 -9 0 -8 -6 -15 -14 -15 -8 0
-32 -18 -53 -39 -21 -22 -48 -42 -61 -46 -19 -5 -15 2 20 37 24 24 64 67 89
96 43 50 82 71 94 51 4 -5 16 -2 30 7 24 16 28 45 10 74 -16 26 -13 54 11 97
13 23 19 45 14 48 -4 3 -11 -1 -13 -7 -4 -9 -6 -8 -6 2 0 8 4 22 9 30 8 13 10
12 10 -2 0 -24 8 -23 31 5 l20 22 -6 -25 c-5 -19 -4 -22 4 -10 6 8 11 25 11
38 0 12 5 22 10 22 6 0 10 5 10 11 0 7 -10 9 -25 5 -32 -8 -31 -1 2 42 l26 35
9 -24 c5 -13 5 -25 1 -26z m-363 -34 c-7 -11 -14 -19 -16 -16 -7 7 7 37 17 37
6 0 5 -9 -1 -21z m287 6 c0 -8 -4 -15 -9 -15 -4 0 -8 -7 -8 -17 0 -9 -3 -14
-6 -10 -8 8 4 57 15 57 4 0 8 -7 8 -15z m114 -35 c5 0 9 -5 9 -11 0 -8 -5 -8
-15 1 -8 7 -14 24 -14 39 l2 26 4 -27 c2 -16 9 -28 14 -28z m73 38 c-3 -4 -12
-8 -20 -8 -8 0 -13 4 -10 8 3 5 12 9 20 9 8 0 13 -4 10 -9z m-182 -50 c-7 -7
-12 -8 -12 -2 0 6 3 14 7 17 3 4 9 5 12 2 2 -3 -1 -11 -7 -17z m-82 -58 c-6
-11 -12 -20 -14 -20 -2 0 -2 9 1 20 3 11 9 20 15 20 5 0 4 -9 -2 -20z m-65
-22 c-10 -33 -56 -110 -62 -104 -3 3 4 18 16 35 12 17 27 44 32 61 13 35 24
41 14 8z m75 -98 c0 -5 -9 -10 -21 -10 -13 0 -18 -4 -13 -12 4 -7 4 -10 -1 -6
-4 4 -16 3 -26 -3 -27 -14 -24 6 3 25 25 18 58 21 58 6z m200 -20 c0 -5 -2
-10 -4 -10 -3 0 -8 5 -11 10 -3 6 -1 10 4 10 6 0 11 -4 11 -10z m-180 -21 c0
-5 -5 -9 -12 -9 -6 0 -20 -7 -30 -17 -10 -9 -18 -11 -18 -5 0 6 8 16 18 21 9
6 13 11 9 11 -5 0 -6 4 -2 10 7 11 35 2 35 -11z m160 -7 c0 -15 -2 -15 -10 -2
-13 20 -13 33 0 25 6 -3 10 -14 10 -23z m-260 -6 c0 -2 -7 -9 -15 -16 -13 -11
-14 -10 -9 4 5 14 24 23 24 12z m230 -22 c0 -8 -5 -12 -10 -9 -6 4 -8 11 -5
16 9 14 15 11 15 -7z m-349 -23 c-12 -12 -26 -21 -33 -21 -6 0 2 11 18 25 33
29 45 26 15 -4z m-21 -41 c0 -5 -5 -10 -11 -10 -5 0 -7 5 -4 10 3 6 8 10 11
10 2 0 4 -4 4 -10z m-42 -40 c-7 -10 -16 -16 -21 -13 -5 3 -2 10 7 15 9 5 13
14 10 20 -4 7 -2 8 4 4 9 -5 9 -12 0 -26z m67 -10 c-3 -5 -11 -10 -16 -10 -6
0 -7 5 -4 10 3 6 11 10 16 10 6 0 7 -4 4 -10z m-95 -18 c0 -5 -13 -18 -30 -30
-20 -15 -28 -18 -24 -7 4 8 10 15 16 15 5 0 6 5 2 12 -4 6 -3 8 4 4 6 -3 13
-2 17 4 7 12 15 13 15 2z m53 -19 c-6 -16 -5 -17 12 -3 11 8 6 -2 -10 -22 -34
-43 -55 -31 -22 14 24 32 29 35 20 11z m-113 -46 c0 -2 -9 -14 -20 -27 -22
-26 -27 -20 -8 10 11 17 28 27 28 17z m310 -38 c0 -6 -4 -7 -10 -4 -5 3 -10
11 -10 16 0 6 5 7 10 4 6 -3 10 -11 10 -16z m-389 -32 c-10 -9 -11 -8 -5 6 3
10 9 15 12 12 3 -3 0 -11 -7 -18z m-11 -42 c-7 -8 -9 -18 -7 -22 3 -5 -3 -9
-14 -9 -21 0 -27 30 -7 42 7 5 8 3 3 -6 -5 -8 -3 -11 6 -8 8 3 13 11 11 17 -1
7 2 10 8 6 8 -5 8 -11 0 -20z m445 -25 c-3 -5 -11 -10 -16 -10 -6 0 -7 5 -4
10 3 6 11 10 16 10 6 0 7 -4 4 -10z m-517 -20 c-12 -19 -28 -27 -28 -14 0 6
30 33 38 34 1 0 -3 -9 -10 -20z m287 -160 c-4 -12 -9 -19 -12 -17 -3 3 -2 15
2 27 4 12 9 19 12 17 3 -3 2 -15 -2 -27z m195 -30 c0 -5 -2 -10 -4 -10 -3 0
-8 5 -11 10 -3 6 -1 10 4 10 6 0 11 -4 11 -10z m-462 -12 c-2 -6 -10 -14 -16
-16 -7 -2 -10 2 -6 12 7 18 28 22 22 4z m126 -14 c9 -3 16 -10 16 -15 0 -4 -7
-5 -17 -2 -10 4 -14 2 -10 -4 8 -13 -21 -46 -33 -38 -5 3 -11 -1 -13 -7 -3 -7
-6 -8 -6 -2 -1 5 8 20 19 32 11 12 20 26 20 32 0 12 3 12 24 4z m-94 -8 c0
-11 -19 -15 -25 -6 -3 5 1 10 9 10 9 0 16 -2 16 -4z m98 -81 c-3 -3 -9 2 -12
12 -6 14 -5 15 5 6 7 -7 10 -15 7 -18z m272 -39 c-7 -7 -13 -7 -20 0 -6 6 -3
10 10 10 13 0 16 -4 10 -10z m-70 -41 c-14 -17 -30 -20 -30 -4 0 5 5 7 10 4 6
-3 10 -1 10 4 0 6 5 11 11 11 8 0 8 -5 -1 -15z m-55 -14 c-12 -10 -65 -24 -65
-16 0 2 15 9 33 14 43 12 42 12 32 2z m-275 -11 c12 -8 12 -10 -5 -9 -11 0
-29 4 -40 9 -18 8 -18 9 5 9 14 0 32 -4 40 -9z m117 -16 c-3 -3 -12 -4 -19 -1
-8 3 -5 6 6 6 11 1 17 -2 13 -5z m218 -4 c13 -6 15 -9 5 -9 -8 0 -22 4 -30 9
-18 12 -2 12 25 0z m-734 -81 c-14 -27 -29 -49 -33 -49 -15 0 -8 28 18 75 36
63 49 39 15 -26z m131 -55 c-2 -9 2 -21 10 -26 9 -7 8 -8 -6 -4 -13 5 -17 2
-13 -8 4 -10 1 -13 -9 -9 -9 3 -13 13 -9 27 3 11 -3 5 -14 -14 -24 -41 -27
-62 -6 -34 8 11 15 14 15 7 0 -7 7 -13 16 -13 8 0 13 -4 10 -9 -4 -5 0 -12 6
-14 9 -4 9 -6 1 -6 -6 -1 -18 6 -27 14 -13 14 -16 13 -24 -2 -8 -14 -16 -11
-57 28 l-47 44 34 52 33 51 45 -33 c28 -21 44 -40 42 -51z m51 -20 c-6 -18
-19 -18 -26 -1 -3 7 3 13 14 14 12 1 16 -3 12 -13z m44 0 c-3 -3 -12 -4 -19
-1 -8 3 -5 6 6 6 11 1 17 -2 13 -5z m893 -26 c0 -12 -28 3 -34 18 -4 11 -2 12
14 1 11 -6 20 -15 20 -19z m410 -23 c0 -11 6 -31 13 -45 11 -21 11 -31 1 -55
-9 -20 -13 -24 -14 -12 0 10 -4 16 -9 12 -12 -7 -17 35 -12 99 2 33 6 44 12
35 5 -8 9 -23 9 -34z m-1265 25 c-3 -5 -10 -10 -16 -10 -5 0 -9 5 -9 10 0 6 7
10 16 10 8 0 12 -4 9 -10z m-103 -32 c-6 -6 -12 -4 -16 7 -3 9 -2 13 4 10 6
-3 10 0 11 7 0 10 2 10 6 0 3 -8 1 -18 -5 -24z m55 26 c-3 -3 -12 -4 -19 -1
-8 3 -5 6 6 6 11 1 17 -2 13 -5z m180 -25 c12 -4 23 -15 23 -22 0 -11 -12 -13
-49 -9 -49 4 -81 -12 -44 -24 31 -9 47 -20 51 -33 3 -10 -5 -12 -36 -6 -38 6
-42 5 -48 -19 -6 -27 -34 -37 -34 -12 0 7 5 38 11 67 6 30 11 60 12 67 0 11
11 12 45 7 25 -4 56 -11 69 -16z m472 -26 c-1 -17 -3 -21 -6 -10 -5 19 -11 20
-79 10 l-49 -8 45 -6 45 -6 -43 -1 c-55 -2 -55 -27 1 -49 38 -16 64 -10 37 7
-13 8 -12 10 3 10 10 0 17 -8 17 -20 0 -17 -7 -20 -45 -20 -37 0 -45 -3 -45
-19 0 -10 -9 -21 -19 -24 -23 -6 -31 16 -31 89 l0 51 78 10 c42 5 80 11 85 11
4 1 6 -10 6 -25z m-289 -19 c-6 -14 -11 -50 -13 -79 -2 -44 -5 -51 -19 -47
-15 4 -18 16 -18 78 l0 74 30 0 c28 0 29 -2 20 -26z m595 17 c3 -5 1 -12 -5
-16 -5 -3 -10 1 -10 9 0 18 6 21 15 7z m-1007 -37 c0 -17 -3 -22 -8 -13 -5 6
-6 18 -3 26 8 19 11 16 11 -13z m33 -6 c-5 -26 -12 -34 -31 -35 l-25 -3 23 10
c13 5 22 15 21 22 -3 23 1 38 10 38 5 0 6 -15 2 -32z m-78 8 c4 -10 1 -13 -9
-9 -15 6 -19 23 -5 23 5 0 11 -7 14 -14z m-1 -83 l3 -48 23 37 c30 48 48 41
44 -17 -5 -54 8 -58 31 -10 15 32 35 44 49 29 3 -3 -10 -30 -30 -60 -43 -67
-65 -68 -72 -4 l-5 45 -26 -38 c-15 -21 -29 -35 -32 -30 -5 8 -11 116 -8 136
0 4 5 7 10 7 6 0 11 -21 13 -47z m298 27 c0 -5 -2 -10 -4 -10 -3 0 -8 5 -11
10 -3 6 -1 10 4 10 6 0 11 -4 11 -10z m-193 -22 c-3 -8 -6 -5 -6 6 -1 11 2 17
5 13 3 -3 4 -12 1 -19z m884 -45 c25 -59 25 -59 44 -43 18 15 19 1 1 -22 -27
-36 -63 -14 -85 51 -15 46 -14 61 4 61 9 0 24 -20 36 -47z m-92 15 c-1 -17 -2
-19 -6 -5 -7 25 -21 21 -38 -13 -28 -54 0 -90 49 -65 23 13 28 12 33 -1 16
-41 -68 -64 -107 -29 -31 28 -27 88 6 114 36 28 64 28 63 -1z m-649 -18 c30
-30 27 -84 -5 -98 -42 -19 -71 -15 -83 13 -16 35 -15 56 4 83 19 28 57 29 84
2z m193 -7 c4 -2 7 -20 7 -39 0 -29 -5 -36 -31 -47 -30 -12 -30 -13 -13 -27
10 -9 15 -10 10 -2 -4 6 -3 12 2 12 10 0 25 -30 19 -37 -10 -9 -56 18 -62 36
-9 30 -35 26 -35 -5 0 -18 -5 -24 -16 -22 -17 3 -17 2 -8 86 l6 63 57 -7 c31
-3 59 -8 64 -11z m263 -17 c13 -15 24 -35 23 -44 0 -10 -7 -2 -15 16 -10 24
-19 32 -30 28 -9 -3 -25 -6 -36 -6 -18 0 -19 -4 -13 -37 8 -47 11 -50 34 -36
16 10 20 9 24 -7 6 -25 -10 -38 -58 -45 l-40 -7 3 85 3 85 41 -2 c31 -2 47 -9
64 -30z m517 27 c-7 -2 -19 -2 -25 0 -7 3 -2 5 12 5 14 0 19 -2 13 -5z m-713
-23 c-18 -11 -4 -100 16 -100 8 0 14 -4 14 -10 0 -17 28 -11 33 8 4 13 5 11 6
-5 1 -21 -3 -23 -54 -23 l-55 0 0 68 c0 38 3 71 6 74 3 3 14 3 25 1 14 -4 17
-8 9 -13z m-795 -89 c40 -65 102 -116 199 -168 26 -14 34 -22 23 -22 -10 -1
-46 15 -78 34 -33 19 -64 35 -70 35 -5 0 -9 5 -9 11 0 5 -4 7 -10 4 -5 -3 -10
-2 -10 4 0 6 -18 38 -40 72 -22 34 -39 72 -39 83 1 20 2 20 6 2 3 -11 15 -36
28 -55z m575 -11 c0 -5 -10 -10 -22 -10 -19 0 -20 2 -8 10 19 13 30 13 30 0z
m467 -16 c-3 -3 -12 -4 -19 -1 -8 3 -5 6 6 6 11 1 17 -2 13 -5z m-757 -185 c0
-5 4 -8 8 -5 16 10 152 -39 152 -55 0 -8 -92 14 -144 36 -33 14 -49 35 -26 35
6 0 10 -5 10 -11z"/>
<path d="M1595 3761 c-3 -6 3 -9 14 -8 11 0 17 5 15 9 -7 11 -22 10 -29 -1z"/>
<path d="M1630 3700 c-8 -5 -10 -10 -5 -10 6 0 17 5 25 10 8 5 11 10 5 10 -5
0 -17 -5 -25 -10z"/>
<path d="M2419 3743 c9 -18 8 -22 -7 -26 -13 -4 -11 -5 6 -6 26 -1 28 8 6 35
-15 18 -15 18 -5 -3z"/>
<path d="M2305 3550 c3 -5 8 -10 11 -10 2 0 4 5 4 10 0 6 -5 10 -11 10 -5 0
-7 -4 -4 -10z"/>
<path d="M2135 3330 c-3 -5 1 -10 10 -10 9 0 13 5 10 10 -3 6 -8 10 -10 10 -2
0 -7 -4 -10 -10z"/>
<path d="M2206 3274 c-9 -24 -8 -26 13 -19 13 4 25 -3 40 -22 11 -15 21 -22
21 -15 0 11 -54 72 -64 72 -2 0 -7 -7 -10 -16z"/>
<path d="M2230 3110 c0 -5 5 -10 11 -10 5 0 7 5 4 10 -3 6 -8 10 -11 10 -2 0
-4 -4 -4 -10z"/>
<path d="M2059 1983 c-13 -16 -12 -17 4 -4 9 7 17 15 17 17 0 8 -8 3 -21 -13z"/>
<path d="M2022 1878 c5 -15 28 -23 28 -10 0 5 -7 13 -16 16 -10 4 -14 1 -12
-6z"/>
<path d="M2025 1780 c3 -5 8 -10 11 -10 2 0 4 5 4 10 0 6 -5 10 -11 10 -5 0
-7 -4 -4 -10z"/>
<path d="M1361 1339 c-31 -33 -26 -48 6 -17 15 15 24 30 21 33 -3 4 -15 -4
-27 -16z"/>
<path d="M1416 1335 c-3 -9 -11 -13 -17 -9 -8 4 -9 3 -5 -4 4 -7 2 -12 -4 -12
-6 0 -8 -5 -4 -11 4 -8 9 -7 15 2 5 8 9 10 9 4 1 -5 6 1 11 14 5 13 8 26 5 28
-2 2 -6 -3 -10 -12z"/>
<path d="M1360 1280 c0 -5 5 -10 11 -10 5 0 7 5 4 10 -3 6 -8 10 -11 10 -2 0
-4 -4 -4 -10z"/>
<path d="M2070 520 c0 -6 7 -10 15 -10 8 0 15 2 15 4 0 2 -7 6 -15 10 -8 3
-15 1 -15 -4z"/>
<path d="M1400 581 c-5 -11 -10 -22 -10 -25 0 -8 31 -36 40 -36 11 0 40 29 40
40 0 14 -30 40 -45 40 -8 0 -19 -9 -25 -19z"/>
<path d="M1645 580 c-3 -5 -3 -10 1 -10 3 0 -1 -12 -11 -26 -16 -25 -16 -25 4
-14 13 6 21 21 21 35 0 27 -5 31 -15 15z"/>
<path d="M1570 565 c0 -10 10 -15 30 -15 20 0 30 5 30 15 0 10 -10 15 -30 15
-20 0 -30 -5 -30 -15z"/>
<path d="M1185 5670 c-3 -6 1 -7 9 -4 18 7 21 14 7 14 -6 0 -13 -4 -16 -10z"/>
<path d="M1496 5665 c4 -8 15 -15 26 -15 17 0 18 3 8 15 -7 8 -19 15 -26 15
-8 0 -11 -6 -8 -15z"/>
<path d="M2220 5666 c0 -3 9 -10 20 -16 11 -6 20 -8 20 -6 0 3 -9 10 -20 16
-11 6 -20 8 -20 6z"/>
<path d="M1323 5649 c-32 -9 -40 -19 -26 -32 3 -4 15 1 25 10 10 9 38 20 61
24 40 6 41 7 7 7 -19 0 -50 -4 -67 -9z"/>
<path d="M1750 5650 c0 -5 5 -10 10 -10 6 0 10 5 10 10 0 6 -4 10 -10 10 -5 0
-10 -4 -10 -10z"/>
<path d="M1530 5630 c0 -6 7 -10 15 -10 8 0 15 2 15 4 0 2 -7 6 -15 10 -8 3
-15 1 -15 -4z"/>
<path d="M2440 5447 c0 -3 11 -27 25 -54 13 -26 25 -40 25 -31 0 9 -11 34 -25
54 -14 20 -25 34 -25 31z"/>
<path d="M1204 5398 c-3 -4 -4 -8 -2 -9 2 0 20 -2 42 -3 31 -2 35 -1 20 7 -24
14 -53 16 -60 5z"/>
<path d="M1300 5370 c0 -5 5 -10 11 -10 5 0 7 5 4 10 -3 6 -8 10 -11 10 -2 0
-4 -4 -4 -10z"/>
<path d="M2522 5322 c1 -18 5 -32 9 -32 9 0 5 47 -5 57 -3 4 -6 -7 -4 -25z"/>
<path d="M1341 5294 c0 -11 3 -14 6 -6 3 7 2 16 -1 19 -3 4 -6 -2 -5 -13z"/>
<path d="M2534 5259 c3 -15 8 -38 12 -53 5 -19 0 -37 -18 -64 -32 -50 -36 -97
-9 -111 31 -17 34 -13 12 16 -24 29 -21 47 15 105 l24 37 -20 48 c-12 26 -18
36 -16 22z"/>
<path d="M777 5253 c-4 -3 -7 -15 -7 -26 0 -25 13 -14 15 13 2 22 1 23 -8 13z"/>
<path d="M2380 5220 c0 -6 7 -10 15 -10 8 0 29 -25 46 -55 17 -30 35 -58 40
-61 18 -11 8 22 -24 76 -22 38 -39 56 -54 57 -13 2 -23 -2 -23 -7z"/>
<path d="M2390 5180 c-9 -6 -10 -10 -3 -10 6 0 15 5 18 10 8 12 4 12 -15 0z"/>
<path d="M1735 5090 c3 -5 8 -10 11 -10 2 0 4 5 4 10 0 6 -5 10 -11 10 -5 0
-7 -4 -4 -10z"/>
<path d="M2461 5074 c0 -11 3 -14 6 -6 3 7 2 16 -1 19 -3 4 -6 -2 -5 -13z"/>
<path d="M2490 4986 c0 -32 20 -86 32 -86 6 0 8 10 4 23 -4 12 -9 37 -13 55
-7 37 -23 43 -23 8z"/>
<path d="M849 4958 c-8 -29 -5 -48 9 -59 15 -12 16 -12 5 2 -7 8 -11 25 -8 37
2 12 2 22 -1 22 -2 0 -4 -1 -5 -2z"/>
<path d="M815 4899 c-4 -6 -5 -12 -2 -15 2 -3 7 2 10 11 7 17 1 20 -8 4z"/>
<path d="M2533 4838 c-29 -36 -22 -120 12 -163 15 -19 16 -19 5 4 -17 34 -17
135 -1 155 7 9 9 16 3 16 -5 0 -14 -6 -19 -12z"/>
<path d="M2420 4749 c0 -5 5 -7 10 -4 6 3 10 8 10 11 0 2 -4 4 -10 4 -5 0 -10
-5 -10 -11z"/>
<path d="M2590 4690 c-6 -11 -9 -29 -7 -38 4 -13 5 -13 6 4 0 11 6 25 13 32 6
6 9 14 6 18 -4 3 -12 -4 -18 -16z"/>
<path d="M2882 4680 c-6 -11 -12 -30 -12 -42 1 -22 1 -22 12 -3 6 11 17 23 24
28 7 4 11 14 8 22 -8 20 -17 19 -32 -5z"/>
<path d="M2440 4650 c-13 -9 -13 -10 0 -10 8 0 22 5 30 10 13 9 13 10 0 10 -8
0 -22 -5 -30 -10z"/>
<path d="M2510 4620 c0 -16 4 -30 8 -30 5 0 7 14 4 30 -2 17 -6 30 -8 30 -2 0
-4 -13 -4 -30z"/>
<path d="M2590 4610 c-8 -5 -12 -12 -9 -15 4 -3 12 1 19 10 14 17 11 19 -10 5z"/>
<path d="M877 4569 c4 -13 8 -18 11 -10 2 7 -1 18 -6 23 -8 8 -9 4 -5 -13z"/>
<path d="M2398 4563 c6 -2 18 -2 25 0 6 3 1 5 -13 5 -14 0 -19 -2 -12 -5z"/>
<path d="M2577 4557 c-3 -9 -2 -19 4 -23 15 -9 18 -2 9 20 -6 17 -7 18 -13 3z"/>
<path d="M830 4529 c0 -5 5 -7 10 -4 6 3 10 8 10 11 0 2 -4 4 -10 4 -5 0 -10
-5 -10 -11z"/>
<path d="M1390 4460 c40 -22 19 -27 -23 -5 -15 8 -25 10 -21 4 19 -31 129 -32
117 -2 -4 9 -8 11 -12 4 -8 -12 -51 -3 -51 10 0 5 -10 9 -22 9 -20 -1 -18 -4
12 -20z"/>
<path d="M2388 4473 c7 -3 16 -2 19 1 4 3 -2 6 -13 5 -11 0 -14 -3 -6 -6z"/>
<path d="M2600 4466 c0 -2 7 -6 15 -10 8 -3 15 -1 15 4 0 6 -7 10 -15 10 -8 0
-15 -2 -15 -4z"/>
<path d="M1270 4446 c0 -2 9 -6 20 -9 11 -3 18 -1 14 4 -5 9 -34 13 -34 5z"/>
<path d="M2519 4420 c-13 -10 -20 -19 -16 -20 4 0 17 9 29 20 28 26 17 26 -13
0z"/>
<path d="M2588 4401 c-28 -25 -30 -31 -19 -45 7 -9 21 -16 29 -16 13 0 12 3
-4 14 -18 14 -18 15 10 45 37 39 27 40 -16 2z"/>
<path d="M1288 4393 c7 -3 16 -2 19 1 4 3 -2 6 -13 5 -11 0 -14 -3 -6 -6z"/>
<path d="M1387 4360 c15 -14 71 -22 78 -11 3 6 0 11 -7 12 -7 1 -28 2 -46 4
-19 1 -30 -1 -25 -5z"/>
<path d="M1381 4334 c6 -8 18 -14 26 -14 20 0 8 16 -17 23 -17 4 -19 3 -9 -9z"/>
<path d="M2555 4309 c-6 -17 -12 -19 -33 -14 -54 14 -71 15 -77 5 -4 -6 -1
-18 6 -26 11 -14 13 -14 21 0 11 20 42 20 62 0 15 -14 17 -14 22 3 3 10 10 26
15 36 6 10 6 17 0 17 -5 0 -13 -9 -16 -21z"/>
<path d="M1220 4289 c0 -5 5 -7 10 -4 6 3 10 8 10 11 0 2 -4 4 -10 4 -5 0 -10
-5 -10 -11z"/>
<path d="M1325 4290 c3 -5 11 -10 16 -10 6 0 7 5 4 10 -3 6 -11 10 -16 10 -6
0 -7 -4 -4 -10z"/>
<path d="M1402 4270 c8 -13 15 -16 19 -8 10 15 2 28 -17 28 -12 0 -12 -4 -2
-20z"/>
<path d="M1230 4266 c0 -2 7 -7 16 -10 8 -3 12 -2 9 4 -6 10 -25 14 -25 6z"/>
<path d="M2500 4256 c0 -2 7 -6 15 -10 8 -3 15 -1 15 4 0 6 -7 10 -15 10 -8 0
-15 -2 -15 -4z"/>
<path d="M1247 4179 c7 -7 15 -10 18 -7 3 3 -2 9 -12 12 -14 6 -15 5 -6 -5z"/>
<path d="M1291 4171 c-11 -7 -9 -10 8 -16 13 -4 25 -4 28 -1 4 3 -1 6 -11 6
-9 0 -14 5 -11 10 8 12 4 12 -14 1z"/>
<path d="M655 4140 c3 -5 8 -10 11 -10 2 0 4 5 4 10 0 6 -5 10 -11 10 -5 0 -7
-4 -4 -10z"/>
<path d="M2368 4103 c7 -3 16 -2 19 1 4 3 -2 6 -13 5 -11 0 -14 -3 -6 -6z"/>
<path d="M817 3870 c9 -16 23 -30 31 -30 14 0 9 13 -16 43 -24 28 -35 20 -15
-13z"/>
<path d="M920 3830 c6 -11 15 -20 19 -20 5 0 7 9 4 20 -3 11 -12 20 -20 20
-11 0 -11 -4 -3 -20z"/>
<path d="M2722 3795 c-14 -31 -15 -35 -3 -35 9 0 25 49 18 56 -2 2 -9 -7 -15
-21z"/>
<path d="M2695 3740 c3 -5 8 -10 11 -10 2 0 4 5 4 10 0 6 -5 10 -11 10 -5 0
-7 -4 -4 -10z"/>
<path d="M891 3713 c-11 -12 -10 -16 5 -28 11 -8 22 -15 25 -15 9 0 29 -49 29
-70 0 -21 48 -96 59 -93 12 3 12 -50 0 -58 -19 -11 -52 32 -55 70 -3 48 -3 48
-14 31 -7 -11 -10 -6 -10 20 -1 34 -34 89 -46 77 -4 -3 1 -13 10 -22 17 -18
21 -41 7 -49 -10 -7 -2 -56 13 -75 8 -11 8 -13 0 -8 -15 9 -25 -40 -10 -52 6
-4 19 -7 29 -6 10 2 17 -3 17 -11 0 -9 -5 -12 -10 -9 -6 4 -9 -2 -7 -12 14
-70 20 -94 28 -99 5 -3 9 -10 9 -15 0 -6 -5 -7 -12 -3 -7 5 -8 3 -3 -6 4 -7 2
-16 -5 -20 -7 -4 -9 -13 -6 -19 4 -6 10 -9 14 -7 4 2 8 -14 9 -35 0 -22 4 -47
8 -57 7 -15 8 -15 15 3 8 19 9 19 9 -2 1 -12 6 -25 11 -28 6 -3 10 -17 10 -30
0 -13 7 -28 16 -33 14 -8 14 -12 1 -44 -12 -29 -13 -40 -1 -74 24 -69 69 -153
82 -154 7 0 12 -6 11 -12 -3 -24 1 -38 11 -38 5 0 7 8 3 18 -4 12 -3 14 5 7 6
-5 12 -29 13 -53 2 -24 6 -45 10 -48 4 -2 6 9 4 26 -3 18 0 28 5 25 6 -4 10
-14 10 -24 0 -10 9 -28 20 -41 11 -13 20 -26 20 -29 0 -3 12 -19 26 -34 15
-17 24 -36 21 -46 -2 -10 1 -18 7 -17 6 0 11 -1 11 -4 0 -3 12 -19 28 -35 15
-16 27 -37 27 -47 0 -9 5 -20 12 -24 7 -4 8 -3 4 4 -12 20 5 13 26 -10 11 -13
16 -17 12 -9 -13 25 13 3 48 -41 19 -25 26 -39 17 -36 -14 5 -15 3 -5 -18 8
-16 12 -19 14 -9 2 8 7 15 12 15 9 0 -44 108 -73 150 l-15 21 -14 -20 c-18
-25 -28 -17 -28 22 0 25 2 28 15 17 13 -10 12 -6 -2 18 -10 18 -23 30 -29 28
-7 -3 -10 3 -7 13 6 24 -22 48 -31 26 -8 -23 -28 -7 -21 16 4 12 1 21 -9 25
-9 3 -16 12 -16 19 0 7 -7 15 -15 19 -8 3 -15 10 -15 15 0 6 7 7 17 4 11 -4
14 -3 9 5 -4 7 -2 12 3 12 6 0 11 -8 12 -17 0 -10 3 -13 5 -6 3 6 -6 33 -20
60 -16 31 -25 41 -26 28 0 -16 -2 -17 -10 -5 -6 9 -5 17 1 21 6 4 4 19 -7 42
-10 20 -21 34 -26 31 -4 -3 -5 2 -2 10 7 19 -12 56 -45 83 -14 11 -22 25 -18
29 12 12 40 -9 56 -42 8 -16 17 -31 21 -34 4 -3 15 -29 24 -57 10 -29 22 -56
28 -59 5 -3 18 -25 28 -48 10 -22 25 -50 34 -61 16 -19 16 -18 1 13 -18 36
-17 83 1 89 7 2 10 -5 7 -19 -3 -16 4 -32 23 -51 40 -40 46 -33 17 21 -20 38
-21 42 -4 22 11 -14 32 -49 48 -77 15 -29 37 -65 50 -79 13 -15 23 -33 23 -41
0 -7 7 -13 15 -13 8 0 15 7 15 15 0 8 -5 15 -11 15 -6 0 -8 7 -5 16 4 9 -1 27
-9 40 -9 13 -11 24 -5 24 20 0 9 25 -27 59 -33 31 -59 66 -134 177 -24 36 -27
38 -44 24 -12 -10 -15 -10 -15 4 0 10 5 14 10 11 6 -3 10 -1 10 5 0 6 -10 15
-22 20 -13 5 -19 9 -15 9 11 1 -25 61 -36 61 -4 0 -6 3 -4 8 7 10 -46 115 -58
116 -12 0 -34 19 -30 26 7 13 -16 50 -32 50 -16 -1 -16 -2 -2 -13 21 -16 33
-112 15 -126 -10 -8 -16 -8 -23 1 -16 23 -32 62 -38 98 -7 34 -6 34 9 15 16
-19 17 -19 11 13 -7 34 2 40 36 22 12 -7 19 -7 19 -1 0 10 -60 111 -66 111 -2
0 4 -16 12 -35 17 -41 18 -55 3 -55 -6 0 -9 6 -6 14 3 8 -3 22 -14 32 -18 16
-19 16 -13 1 3 -10 1 -17 -6 -17 -6 0 -8 -5 -4 -12 4 -7 -3 -4 -15 7 -16 14
-19 21 -9 24 7 2 19 11 27 19 14 14 10 50 -13 104 -5 11 -1 18 13 23 40 12 6
111 -76 221 -13 17 -23 38 -23 47 0 23 -13 27 -29 10z m39 -253 c0 -5 -2 -10
-4 -10 -3 0 -8 5 -11 10 -3 6 -1 10 4 10 6 0 11 -4 11 -10z m180 -420 c0 -5
-2 -10 -4 -10 -3 0 -8 5 -11 10 -3 6 -1 10 4 10 6 0 11 -4 11 -10z m47 -37
c12 -5 12 -7 1 -14 -21 -14 -50 -11 -41 4 4 6 8 17 9 22 4 32 7 37 11 17 3
-13 11 -26 20 -29z m-87 -27 c0 -3 -4 -8 -10 -11 -5 -3 -10 -1 -10 4 0 6 5 11
10 11 6 0 10 -2 10 -4z m166 -100 c2 -17 -4 -4 -16 29 -11 33 -19 62 -19 65 2
12 30 -65 35 -94z m-136 -7 c0 -6 -4 -7 -10 -4 -5 3 -10 11 -10 16 0 6 5 7 10
4 6 -3 10 -11 10 -16z m193 -79 c3 -11 2 -22 -2 -24 -4 -3 -8 6 -9 20 -2 29 4
31 11 4z"/>
<path d="M2671 3683 c-8 -21 -16 -44 -18 -50 -3 -7 0 -13 6 -13 6 0 11 7 11
16 0 8 5 12 10 9 6 -3 11 0 11 7 8 77 0 88 -20 31z"/>
<path d="M1050 3617 c0 -8 7 -14 15 -14 11 0 12 4 4 14 -6 7 -13 13 -15 13 -2
0 -4 -6 -4 -13z"/>
<path d="M2643 3563 c-3 -10 -8 -21 -10 -25 -2 -4 1 -9 6 -12 5 -3 11 8 13 24
5 33 1 39 -9 13z"/>
<path d="M1060 3485 c11 -14 12 -19 3 -22 -7 -3 -13 -12 -13 -21 0 -15 2 -15
10 -2 6 9 10 10 10 3 0 -6 -7 -18 -15 -26 -12 -13 -12 -17 0 -27 7 -6 12 -17
9 -24 -6 -16 34 -96 48 -96 5 0 7 -4 3 -9 -3 -6 4 -15 15 -21 28 -15 27 13 -1
41 l-21 21 21 -7 c14 -4 21 -2 21 7 0 9 3 10 8 2 4 -6 17 -14 28 -18 17 -5 23
-2 27 14 3 14 1 20 -6 17 -12 -4 -67 67 -97 124 -9 16 -27 37 -40 46 -24 16
-24 16 -10 -2z m60 -97 c0 -13 -23 -5 -28 10 -2 7 2 10 12 6 9 -3 16 -11 16
-16z"/>
<path d="M2630 3478 c0 -19 2 -20 10 -8 13 19 13 30 0 30 -5 0 -10 -10 -10
-22z"/>
<path d="M986 3477 c3 -10 9 -15 12 -12 3 3 0 11 -7 18 -10 9 -11 8 -5 -6z"/>
<path d="M2601 3473 c-1 -6 -4 -20 -7 -30 -5 -17 -5 -17 6 0 6 10 9 23 6 30
-3 9 -5 9 -5 0z"/>
<path d="M1180 3451 c8 -6 11 -11 7 -11 -4 0 4 -12 20 -27 15 -16 33 -27 40
-25 7 2 13 -4 13 -12 0 -20 19 -31 33 -17 19 19 -40 69 -118 99 -5 2 -3 -1 5
-7z m75 -41 c3 -5 2 -10 -4 -10 -5 0 -13 5 -16 10 -3 6 -2 10 4 10 5 0 13 -4
16 -10z"/>
<path d="M1175 3380 c9 -16 18 -30 21 -30 2 0 -2 14 -11 30 -9 17 -18 30 -21
30 -2 0 2 -13 11 -30z"/>
<path d="M1200 3340 c-13 -8 -12 -10 3 -10 9 0 17 5 17 10 0 12 -1 12 -20 0z"/>
<path d="M2540 3295 c0 -8 4 -15 8 -15 5 0 9 7 9 15 0 8 -4 15 -9 15 -4 0 -8
-7 -8 -15z"/>
<path d="M2582 3290 c0 -14 2 -19 5 -12 2 6 2 18 0 25 -3 6 -5 1 -5 -13z"/>
<path d="M1216 3283 c-4 -5 -18 -8 -29 -8 -20 0 -22 -5 -22 -67 0 -47 4 -68
12 -68 7 0 10 -6 7 -13 -2 -7 11 -28 31 -47 34 -33 45 -60 25 -60 -17 0 10
-42 30 -47 10 -3 16 -11 14 -18 -3 -7 0 -16 7 -21 8 -4 10 -3 5 4 -4 7 -1 12
8 12 9 0 13 -6 10 -14 -3 -7 9 -27 26 -45 17 -17 28 -31 24 -31 -4 0 1 -9 11
-20 10 -11 24 -20 31 -20 7 0 15 -6 17 -12 4 -10 8 -9 17 2 9 12 10 11 5 -6
-3 -13 1 -26 10 -34 8 -7 12 -16 9 -21 -3 -5 2 -6 10 -3 16 6 56 -12 56 -25 0
-4 -13 -6 -30 -3 -34 5 -39 -8 -13 -34 16 -15 18 -15 40 12 15 19 21 36 17 49
-9 26 -26 37 -36 22 -5 -8 -9 -5 -14 8 -5 11 -3 20 4 23 16 5 15 33 -3 56 -8
11 -12 31 -10 45 4 21 4 22 -3 7 -8 -18 -10 -16 -22 15 -7 18 -12 39 -11 45 1
7 -6 11 -15 10 -11 -1 -21 13 -30 38 -8 22 -20 47 -27 55 -7 9 -19 28 -27 44
-16 32 -35 36 -27 5 5 -19 3 -18 -18 7 -28 35 -49 85 -34 85 5 0 9 -6 9 -14 0
-8 9 -24 20 -37 17 -21 19 -21 13 -4 -4 11 -19 40 -35 64 -15 25 -28 51 -28
58 0 14 -22 18 -34 6z m-17 -32 c7 -5 9 -11 5 -14 -5 -3 -15 1 -22 9 -14 16
-5 18 17 5z m25 -37 c3 -8 2 -12 -4 -9 -6 3 -10 10 -10 16 0 14 7 11 14 -7z
m5 -68 c-3 -3 -11 5 -18 17 -13 21 -12 21 5 5 10 -10 16 -20 13 -22z m96 -154
c-2 -2 -11 2 -19 11 -8 8 -12 18 -8 21 3 4 12 -1 19 -10 7 -10 11 -20 8 -22z
m22 -44 c-3 -8 -6 -5 -6 6 -1 11 2 17 5 13 3 -3 4 -12 1 -19z m123 -100 c0
-14 -39 11 -51 33 -10 20 -9 20 20 -2 17 -12 31 -27 31 -31z"/>
<path d="M2435 3229 c-4 -6 -5 -12 -2 -15 2 -3 7 2 10 11 7 17 1 20 -8 4z"/>
<path d="M1122 3198 c2 -6 10 -14 16 -16 7 -2 10 2 6 12 -7 18 -28 22 -22 4z"/>
<path d="M2356 3195 c-10 -28 -7 -45 9 -45 11 0 14 7 11 26 -6 34 -12 39 -20
19z"/>
<path d="M1436 3165 c4 -8 13 -15 21 -15 13 0 13 3 3 15 -7 8 -16 15 -21 15
-5 0 -6 -7 -3 -15z"/>
<path d="M1330 3160 c0 -5 5 -10 11 -10 5 0 7 5 4 10 -3 6 -8 10 -11 10 -2 0
-4 -4 -4 -10z"/>
<path d="M1855 3160 c3 -5 8 -10 11 -10 2 0 4 5 4 10 0 6 -5 10 -11 10 -5 0
-7 -4 -4 -10z"/>
<path d="M1056 3145 c4 -9 11 -14 16 -13 15 5 11 23 -6 26 -11 2 -14 -2 -10
-13z"/>
<path d="M2535 3140 c-3 -5 -1 -10 4 -10 6 0 11 5 11 10 0 6 -2 10 -4 10 -3 0
-8 -4 -11 -10z"/>
<path d="M1603 3125 c0 -8 4 -15 9 -15 4 0 8 4 8 9 0 6 -4 12 -8 15 -5 3 -9
-1 -9 -9z"/>
<path d="M1660 3065 c0 -8 6 -18 14 -21 8 -3 12 -12 9 -20 -3 -8 0 -14 6 -14
16 0 13 30 -4 36 -8 4 -13 10 -10 14 3 5 1 11 -5 15 -5 3 -10 -1 -10 -10z"/>
<path d="M1220 3040 c0 -5 5 -10 11 -10 5 0 7 5 4 10 -3 6 -8 10 -11 10 -2 0
-4 -4 -4 -10z"/>
<path d="M1830 3000 c0 -5 5 -10 11 -10 5 0 7 5 4 10 -3 6 -8 10 -11 10 -2 0
-4 -4 -4 -10z"/>
<path d="M1707 2960 c3 -25 13 -55 20 -67 8 -12 12 -28 8 -35 -4 -7 1 -4 9 6
9 11 16 25 16 30 0 6 -4 5 -9 -3 -7 -11 -12 -3 -21 30 -17 70 -30 91 -23 39z"/>
<path d="M2420 2952 c0 -11 -3 -27 -6 -36 -9 -23 13 -20 26 4 9 16 7 24 -5 36
-13 14 -15 13 -15 -4z"/>
<path d="M1828 2885 c-1 -36 0 -65 5 -65 4 0 7 29 7 65 0 36 -2 65 -4 65 -2 0
-6 -29 -8 -65z"/>
<path d="M1893 2905 c0 -8 4 -15 9 -15 4 0 8 7 8 15 0 8 -4 15 -8 15 -5 0 -9
-7 -9 -15z"/>
<path d="M1516 2885 c4 -8 8 -15 10 -15 2 0 4 7 4 15 0 8 -4 15 -10 15 -5 0
-7 -7 -4 -15z"/>
<path d="M1901 2854 c0 -11 3 -14 6 -6 3 7 2 16 -1 19 -3 4 -6 -2 -5 -13z"/>
<path d="M1554 2828 c16 -21 30 -38 33 -38 8 0 -16 36 -38 55 -19 16 -18 13 5
-17z"/>
<path d="M1980 2840 c0 -5 5 -10 10 -10 6 0 10 5 10 10 0 6 -4 10 -10 10 -5 0
-10 -4 -10 -10z"/>
<path d="M1872 2805 c0 -16 2 -22 5 -12 2 9 2 23 0 30 -3 6 -5 -1 -5 -18z"/>
<path d="M1550 2785 c0 -5 5 -17 10 -25 5 -8 10 -10 10 -5 0 6 -5 17 -10 25
-5 8 -10 11 -10 5z"/>
<path d="M1775 2781 c-3 -5 -1 -12 5 -16 5 -3 10 1 10 9 0 18 -6 21 -15 7z"/>
<path d="M1591 2744 c0 -11 3 -14 6 -6 3 7 2 16 -1 19 -3 4 -6 -2 -5 -13z"/>
<path d="M1842 2700 c0 -14 2 -19 5 -12 2 6 2 18 0 25 -3 6 -5 1 -5 -13z"/>
<path d="M1131 2694 c0 -11 3 -14 6 -6 3 7 2 16 -1 19 -3 4 -6 -2 -5 -13z"/>
<path d="M1805 2700 c-3 -6 1 -7 9 -4 18 7 21 14 7 14 -6 0 -13 -4 -16 -10z"/>
<path d="M1350 2622 c0 -16 3 -32 7 -36 4 -4 8 -15 8 -23 0 -26 21 -26 23 -1
2 30 -17 88 -29 88 -5 0 -9 -13 -9 -28z"/>
<path d="M1503 2643 c-15 -5 12 -53 30 -53 7 0 7 4 -1 12 -15 15 -16 31 -1 22
7 -4 10 -1 7 6 -5 16 -18 20 -35 13z"/>
<path d="M1385 2630 c3 -5 8 -10 11 -10 2 0 4 5 4 10 0 6 -5 10 -11 10 -5 0
-7 -4 -4 -10z"/>
<path d="M1900 2618 c0 -19 2 -20 10 -8 13 19 13 30 0 30 -5 0 -10 -10 -10
-22z"/>
<path d="M2317 2633 c-4 -3 -7 -11 -7 -17 0 -6 5 -5 12 2 6 6 9 14 7 17 -3 3
-9 2 -12 -2z"/>
<path d="M2286 2594 c-4 -9 -4 -19 -1 -22 2 -3 7 3 11 12 4 9 4 19 1 22 -2 3
-7 -3 -11 -12z"/>
<path d="M1560 2590 c13 -8 13 -10 -2 -10 -20 0 -24 -5 -33 -47 -4 -21 -3 -33
4 -33 6 0 7 8 4 17 -5 12 -2 15 10 10 9 -3 19 -2 23 4 3 6 12 8 20 5 18 -7 18
8 0 24 -8 6 -12 18 -9 26 3 9 -1 14 -13 14 -16 0 -17 -2 -4 -10z m10 -41 c0
-5 -4 -9 -10 -9 -5 0 -10 7 -10 16 0 8 5 12 10 9 6 -3 10 -10 10 -16z"/>
<path d="M1621 2577 c0 -12 3 -16 6 -9 2 6 9 10 14 6 5 -3 9 -1 9 4 0 6 -7 12
-15 16 -11 4 -15 -1 -14 -17z"/>
<path d="M1220 2581 c0 -5 5 -13 10 -16 6 -3 10 -2 10 4 0 5 -4 13 -10 16 -5
3 -10 2 -10 -4z"/>
<path d="M1413 2575 c0 -8 4 -15 9 -15 4 0 8 4 8 9 0 6 -4 12 -8 15 -5 3 -9
-1 -9 -9z"/>
<path d="M2316 2575 c-9 -26 -7 -32 5 -12 6 10 9 21 6 23 -2 3 -7 -2 -11 -11z"/>
<path d="M1440 2556 c0 -2 7 -7 16 -10 8 -3 12 -2 9 4 -6 10 -25 14 -25 6z"/>
<path d="M1847 2533 c-7 -14 -18 -63 -13 -63 10 0 34 60 26 65 -5 3 -11 2 -13
-2z"/>
<path d="M1220 2524 c0 -11 61 -66 66 -61 4 3 -8 19 -25 36 -31 31 -41 37 -41
25z"/>
<path d="M1400 2521 c0 -16 69 -127 95 -151 13 -12 21 -28 18 -36 -3 -8 0 -14
6 -14 18 0 12 27 -12 57 -32 38 -42 67 -22 59 9 -3 13 -2 10 4 -3 6 -13 10
-21 10 -8 0 -13 4 -10 8 3 5 -2 18 -10 30 -18 25 -54 48 -54 33z"/>
<path d="M1527 2460 c8 -30 21 -33 19 -5 0 14 -6 25 -13 25 -6 0 -9 -9 -6 -20z"/>
<path d="M1577 2335 c-4 -8 -2 -15 3 -15 6 0 10 -9 10 -21 0 -11 -4 -17 -10
-14 -5 3 -10 1 -10 -4 0 -6 9 -11 20 -11 11 0 20 -4 20 -10 0 -15 36 -12 49 4
9 11 5 17 -16 32 -16 10 -32 19 -38 19 -5 0 -10 5 -10 12 0 19 -12 25 -18 8z"/>
<path d="M1675 2340 c-3 -5 -1 -10 4 -10 6 0 11 5 11 10 0 6 -2 10 -4 10 -3 0
-8 -4 -11 -10z"/>
<path d="M1533 2282 c-1 -22 0 -24 9 -8 6 10 6 22 2 26 -5 5 -10 -3 -11 -18z"/>
<path d="M1553 2264 c4 -4 1 -14 -6 -22 -10 -13 -9 -14 11 -3 27 14 27 17 5
25 -10 4 -14 4 -10 0z"/>
<path d="M1480 2249 c0 -5 5 -7 10 -4 6 3 10 8 10 11 0 2 -4 4 -10 4 -5 0 -10
-5 -10 -11z"/>
<path d="M1689 2233 c-13 -16 -12 -17 4 -4 9 7 17 15 17 17 0 8 -8 3 -21 -13z"/>
<path d="M2260 2232 c0 -5 7 -15 15 -22 8 -7 15 -8 15 -2 0 5 -7 15 -15 22 -8
7 -15 8 -15 2z"/>
<path d="M1430 2190 c0 -6 5 -8 11 -4 6 3 16 0 21 -7 8 -12 9 -11 5 1 -4 18
-37 27 -37 10z"/>
<path d="M1514 2101 c8 -13 -4 -42 -15 -35 -5 3 -9 -2 -9 -10 0 -17 26 -11 46
9 13 13 0 45 -17 45 -6 0 -8 -4 -5 -9z"/>
<path d="M1572 2040 c-6 -10 -8 -21 -3 -24 5 -3 11 4 14 16 8 29 4 32 -11 8z"/>
<path d="M1685 2039 c-4 -6 -5 -12 -2 -15 2 -3 7 2 10 11 7 17 1 20 -8 4z"/>
<path d="M1321 2033 c1 -5 1 -15 0 -23 -1 -13 -2 -13 -11 0 -8 12 -10 11 -10
-7 0 -31 18 -29 30 3 12 32 12 34 0 34 -5 0 -9 -3 -9 -7z"/>
<path d="M1502 2000 c0 -19 2 -27 5 -17 2 9 2 25 0 35 -3 9 -5 1 -5 -18z"/>
<path d="M1521 1973 c-15 -32 -7 -43 9 -13 10 18 14 20 21 9 7 -11 9 -11 9 2
0 28 -27 29 -39 2z"/>
<path d="M1326 1952 c-5 -18 -5 -36 -2 -39 7 -7 19 43 13 59 -2 7 -7 -2 -11
-20z"/>
<path d="M1491 1933 c-1 -6 -4 -20 -7 -30 -5 -17 -5 -17 6 0 6 10 9 23 6 30
-3 9 -5 9 -5 0z"/>
<path d="M1547 1933 c-4 -3 -7 -11 -7 -17 0 -6 5 -5 12 2 6 6 9 14 7 17 -3 3
-9 2 -12 -2z"/>
<path d="M1340 1865 c0 -32 3 -55 7 -51 7 7 5 97 -3 105 -2 2 -4 -22 -4 -54z"/>
<path d="M1385 1860 c3 -5 8 -10 11 -10 2 0 4 5 4 10 0 6 -5 10 -11 10 -5 0
-7 -4 -4 -10z"/>
<path d="M1370 1824 c0 -8 5 -12 10 -9 6 4 8 11 5 16 -9 14 -15 11 -15 -7z"/>
<path d="M1419 1775 c-20 -42 -6 -47 16 -5 17 33 18 40 8 40 -5 -1 -15 -16
-24 -35z"/>
<path d="M1368 1705 c-3 -13 -2 -22 2 -20 11 7 20 45 10 45 -4 0 -10 -11 -12
-25z"/>
<path d="M1425 1720 c-3 -5 -1 -10 4 -10 6 0 11 5 11 10 0 6 -2 10 -4 10 -3 0
-8 -4 -11 -10z"/>
<path d="M1310 1712 c0 -5 7 -15 15 -22 8 -7 15 -9 15 -6 0 4 -7 14 -15 22 -8
9 -15 11 -15 6z"/>
<path d="M1339 1658 c0 -7 -2 -21 -4 -30 -2 -10 1 -18 6 -18 5 0 9 14 9 30 0
29 -9 44 -11 18z"/>
<path d="M1290 1576 c0 -8 -3 -23 -6 -33 -3 -10 2 -7 10 7 18 30 20 40 6 40
-5 0 -10 -6 -10 -14z"/>
<path d="M2103 1495 c-10 -11 -10 -15 0 -19 9 -5 9 -7 0 -12 -7 -3 -13 -13
-13 -22 1 -16 2 -16 13 0 12 15 14 15 25 0 7 -9 10 -11 6 -3 -4 8 -10 27 -13
42 -5 22 -8 24 -18 14z"/>
<path d="M2180 1457 c0 -13 -21 -63 -46 -112 -25 -50 -55 -108 -66 -130 -12
-22 -24 -42 -28 -45 -12 -8 -15 -43 -6 -59 6 -10 5 -12 -2 -7 -7 4 -21 9 -32
11 -18 3 -19 1 -9 -18 7 -12 13 -23 14 -25 7 -9 66 31 84 56 16 23 18 32 8 42
-8 8 -8 11 -1 7 7 -4 15 3 19 16 l8 22 4 -22 c2 -13 8 -23 13 -23 13 0 19 54
8 68 -7 8 -7 12 1 12 6 0 16 -10 21 -22 5 -14 9 -17 9 -8 1 9 -7 26 -16 39 -9
14 -11 21 -5 17 7 -4 13 -4 13 1 1 4 3 19 4 33 2 14 8 54 14 90 13 80 13 80 1
80 -5 0 -10 -10 -10 -23z"/>
<path d="M2111 1374 c0 -11 3 -14 6 -6 3 7 2 16 -1 19 -3 4 -6 -2 -5 -13z"/>
<path d="M2366 1327 c3 -10 9 -15 12 -12 3 3 0 11 -7 18 -10 9 -11 8 -5 -6z"/>
<path d="M2236 1281 c-3 -5 -3 -30 0 -56 5 -32 10 -43 17 -36 7 7 7 22 -1 47
-6 21 -9 41 -6 46 3 4 3 8 0 8 -3 0 -7 -4 -10 -9z"/>
<path d="M1410 1173 c0 -15 2 -16 10 -3 7 11 10 11 10 2 0 -7 5 -10 11 -6 8 4
7 9 -2 15 -21 13 -29 11 -29 -8z"/>
<path d="M1358 1172 c-10 -2 -18 -8 -18 -13 0 -6 -10 -7 -22 -4 -23 7 -23 7
-3 -8 12 -9 24 -12 30 -7 6 5 17 5 25 0 24 -15 30 -12 30 18 0 19 -3 23 -9 13
-5 -7 -10 -9 -12 -4 -2 5 -12 7 -21 5z"/>
<path d="M2160 1170 c0 -5 5 -10 11 -10 5 0 7 5 4 10 -3 6 -8 10 -11 10 -2 0
-4 -4 -4 -10z"/>
<path d="M1234 1151 c20 -22 36 -27 36 -13 0 5 -12 14 -27 21 -28 13 -28 13
-9 -8z"/>
<path d="M2220 1144 c0 -14 4 -23 9 -20 5 3 7 15 4 26 -7 28 -13 25 -13 -6z"/>
<path d="M2130 1140 c-8 -5 -11 -10 -5 -10 5 0 4 -5 -3 -12 -22 -22 -13 -31
13 -14 14 9 30 14 36 10 7 -4 7 1 0 15 -13 23 -19 25 -41 11z"/>
<path d="M2460 1100 c0 -5 14 -31 30 -57 36 -57 40 -37 5 24 -26 43 -35 52
-35 33z"/>
<path d="M2310 1053 c0 -4 17 -16 38 -26 30 -14 33 -14 17 -1 -29 23 -55 36
-55 27z"/>
<path d="M2440 932 c0 -4 7 -17 15 -28 18 -24 19 -43 3 -64 -7 -9 -1 -3 15 14
15 17 27 39 27 50 0 11 -3 16 -7 13 -3 -4 -17 0 -30 8 -13 9 -23 12 -23 7z"/>
<path d="M2510 876 c0 -8 4 -17 9 -20 5 -4 7 3 4 14 -6 23 -13 26 -13 6z"/>
<path d="M2257 835 c17 -23 33 -32 33 -19 0 7 -40 44 -47 44 -2 0 4 -11 14
-25z"/>
<path d="M1045 757 c-30 -52 -32 -69 -5 -39 11 12 20 25 20 30 0 5 7 15 15 22
17 14 20 30 5 30 -5 0 -21 -20 -35 -43z"/>
<path d="M2390 785 c0 -8 4 -15 10 -15 5 0 7 7 4 15 -4 8 -8 15 -10 15 -2 0
-4 -7 -4 -15z"/>
<path d="M2107 763 c-7 -35 -5 -36 33 -28 l32 7 -23 24 c-29 31 -35 30 -42 -3z"/>
<path d="M2351 764 c0 -11 3 -14 6 -6 3 7 2 16 -1 19 -3 4 -6 -2 -5 -13z"/>
<path d="M2225 750 c3 -5 8 -10 11 -10 2 0 4 5 4 10 0 6 -5 10 -11 10 -5 0 -7
-4 -4 -10z"/>
<path d="M1070 724 c0 -14 4 -23 9 -20 5 3 7 15 4 26 -7 28 -13 25 -13 -6z"/>
<path d="M2443 722 c-20 -13 8 -45 33 -39 18 5 17 5 -3 12 -13 4 -23 12 -23
17 0 5 5 6 12 2 7 -4 8 -3 4 4 -8 14 -8 14 -23 4z"/>
<path d="M2360 680 c0 -23 10 -26 28 -8 18 18 15 28 -8 28 -13 0 -20 -7 -20
-20z"/>
<path d="M2440 670 c0 -6 7 -10 15 -10 8 0 15 2 15 4 0 2 -7 6 -15 10 -8 3
-15 1 -15 -4z"/>
<path d="M2702 600 c0 -14 2 -19 5 -12 2 6 2 18 0 25 -3 6 -5 1 -5 -13z"/>
<path d="M2702 545 c0 -16 2 -22 5 -12 2 9 2 23 0 30 -3 6 -5 -1 -5 -18z"/>
<path d="M2674 478 c-4 -13 -34 -50 -68 -82 -34 -33 -47 -50 -29 -37 54 37
123 112 123 133 0 17 -19 7 -26 -14z"/>
</g>
</svg>
